%
M48
M72
T01C0.04000
T02C0.13000
%
T01
X11400Y66250
X11400Y76250
X11400Y86250
X11400Y96250
X11400Y106250
X11400Y116250
X11400Y126250
X11400Y136250
X11400Y146250
X11400Y156250
X41400Y178750
X41400Y163750
X41400Y148750
X41400Y133750
X51400Y133750
X51400Y148750
X51400Y163750
X51400Y178750
X61400Y178750
X61400Y163750
X61400Y148750
X61400Y133750
X71400Y133750
X71400Y148750
X71400Y163750
X71400Y178750
X101400Y156250
X101400Y146250
X101400Y136250
X101400Y126250
X101400Y116250
X101400Y106250
X101400Y96250
X101400Y86250
X101400Y76250
X101400Y66250
X71400Y53750
X71400Y68750
X71400Y83750
X71400Y98750
X61400Y98750
X61400Y83750
X61400Y68750
X61400Y53750
X51400Y53750
X51400Y68750
X51400Y83750
X51400Y98750
X41400Y98750
X41400Y83750
X41400Y68750
X41400Y53750
T02
X16400Y46250
X16400Y176250
X96400Y176250
X96400Y46250
M30
