G75*
%MOIN*%
%OFA0B0*%
%FSLAX25Y25*%
%IPPOS*%
%LPD*%
%AMOC8*
5,1,8,0,0,1.08239X$1,22.5*
%
%ADD10C,0.00800*%
%ADD11C,0.00000*%
%ADD12C,0.07400*%
D10*
X0001400Y0032750D02*
X0001400Y0196250D01*
X0111400Y0196250D01*
X0111400Y0032750D01*
X0001400Y0032750D01*
X0006400Y0036250D02*
X0006400Y0065217D01*
X0006426Y0065056D01*
X0006674Y0064292D01*
X0007038Y0063577D01*
X0007510Y0062928D01*
X0008078Y0062360D01*
X0008727Y0061888D01*
X0009442Y0061524D01*
X0010206Y0061276D01*
X0010999Y0061150D01*
X0011000Y0061150D01*
X0011000Y0065850D01*
X0011800Y0065850D01*
X0011800Y0066650D01*
X0016500Y0066650D01*
X0016500Y0066651D01*
X0016374Y0067444D01*
X0016126Y0068208D01*
X0015762Y0068923D01*
X0015290Y0069572D01*
X0014722Y0070140D01*
X0014073Y0070612D01*
X0013358Y0070976D01*
X0012887Y0071129D01*
X0014402Y0071757D01*
X0015893Y0073248D01*
X0016700Y0075196D01*
X0016700Y0077304D01*
X0015893Y0079252D01*
X0014402Y0080743D01*
X0013178Y0081250D01*
X0014402Y0081757D01*
X0015893Y0083248D01*
X0016308Y0084250D01*
X0022228Y0084250D01*
X0023400Y0085422D01*
X0023400Y0109250D01*
X0049400Y0109250D01*
X0049400Y0103658D01*
X0048398Y0103243D01*
X0046907Y0101752D01*
X0046279Y0100237D01*
X0046126Y0100708D01*
X0045762Y0101423D01*
X0045290Y0102072D01*
X0044722Y0102640D01*
X0044073Y0103112D01*
X0043358Y0103476D01*
X0042594Y0103724D01*
X0041801Y0103850D01*
X0041800Y0103850D01*
X0041800Y0099150D01*
X0041000Y0099150D01*
X0041000Y0103850D01*
X0040999Y0103850D01*
X0040206Y0103724D01*
X0039442Y0103476D01*
X0038727Y0103112D01*
X0038078Y0102640D01*
X0037510Y0102072D01*
X0037038Y0101423D01*
X0036674Y0100708D01*
X0036426Y0099944D01*
X0036300Y0099151D01*
X0036300Y0099150D01*
X0041000Y0099150D01*
X0041000Y0098350D01*
X0041800Y0098350D01*
X0041800Y0093650D01*
X0041801Y0093650D01*
X0042594Y0093776D01*
X0043358Y0094024D01*
X0044073Y0094388D01*
X0044722Y0094860D01*
X0045290Y0095428D01*
X0045762Y0096077D01*
X0046126Y0096792D01*
X0046279Y0097263D01*
X0046907Y0095748D01*
X0048398Y0094257D01*
X0049400Y0093842D01*
X0049400Y0088658D01*
X0048398Y0088243D01*
X0046907Y0086752D01*
X0046279Y0085237D01*
X0046126Y0085708D01*
X0045762Y0086423D01*
X0045290Y0087072D01*
X0044722Y0087640D01*
X0044073Y0088112D01*
X0043358Y0088476D01*
X0042594Y0088724D01*
X0041801Y0088850D01*
X0041800Y0088850D01*
X0041800Y0084150D01*
X0041000Y0084150D01*
X0041000Y0088850D01*
X0040999Y0088850D01*
X0040206Y0088724D01*
X0039442Y0088476D01*
X0038727Y0088112D01*
X0038078Y0087640D01*
X0037510Y0087072D01*
X0037038Y0086423D01*
X0036674Y0085708D01*
X0036426Y0084944D01*
X0036300Y0084151D01*
X0036300Y0084150D01*
X0041000Y0084150D01*
X0041000Y0083350D01*
X0041800Y0083350D01*
X0041800Y0078650D01*
X0041801Y0078650D01*
X0042594Y0078776D01*
X0043358Y0079024D01*
X0044073Y0079388D01*
X0044722Y0079860D01*
X0045290Y0080428D01*
X0045762Y0081077D01*
X0046126Y0081792D01*
X0046279Y0082263D01*
X0046907Y0080748D01*
X0048398Y0079257D01*
X0049400Y0078842D01*
X0049400Y0073658D01*
X0048398Y0073243D01*
X0046907Y0071752D01*
X0046279Y0070237D01*
X0046126Y0070708D01*
X0045762Y0071423D01*
X0045290Y0072072D01*
X0044722Y0072640D01*
X0044073Y0073112D01*
X0043358Y0073476D01*
X0042594Y0073724D01*
X0041801Y0073850D01*
X0041800Y0073850D01*
X0041800Y0069150D01*
X0041000Y0069150D01*
X0041000Y0073850D01*
X0040999Y0073850D01*
X0040206Y0073724D01*
X0039442Y0073476D01*
X0038727Y0073112D01*
X0038078Y0072640D01*
X0037510Y0072072D01*
X0037038Y0071423D01*
X0036674Y0070708D01*
X0036426Y0069944D01*
X0036300Y0069151D01*
X0036300Y0069150D01*
X0041000Y0069150D01*
X0041000Y0068350D01*
X0041800Y0068350D01*
X0041800Y0063650D01*
X0041801Y0063650D01*
X0042594Y0063776D01*
X0043358Y0064024D01*
X0044073Y0064388D01*
X0044722Y0064860D01*
X0045290Y0065428D01*
X0045762Y0066077D01*
X0046126Y0066792D01*
X0046279Y0067263D01*
X0046907Y0065748D01*
X0048398Y0064257D01*
X0049400Y0063842D01*
X0049400Y0058658D01*
X0048398Y0058243D01*
X0046907Y0056752D01*
X0046279Y0055237D01*
X0046126Y0055708D01*
X0045762Y0056423D01*
X0045290Y0057072D01*
X0044722Y0057640D01*
X0044073Y0058112D01*
X0043358Y0058476D01*
X0042594Y0058724D01*
X0041801Y0058850D01*
X0041800Y0058850D01*
X0041800Y0054150D01*
X0041000Y0054150D01*
X0041000Y0058850D01*
X0040999Y0058850D01*
X0040206Y0058724D01*
X0039442Y0058476D01*
X0038727Y0058112D01*
X0038078Y0057640D01*
X0037510Y0057072D01*
X0037038Y0056423D01*
X0036674Y0055708D01*
X0036426Y0054944D01*
X0036300Y0054151D01*
X0036300Y0054150D01*
X0041000Y0054150D01*
X0041000Y0053350D01*
X0036300Y0053350D01*
X0036300Y0053349D01*
X0036426Y0052556D01*
X0036674Y0051792D01*
X0037038Y0051077D01*
X0037510Y0050428D01*
X0038078Y0049860D01*
X0038727Y0049388D01*
X0039442Y0049024D01*
X0040206Y0048776D01*
X0040999Y0048650D01*
X0041000Y0048650D01*
X0041000Y0053350D01*
X0041800Y0053350D01*
X0041800Y0048650D01*
X0041801Y0048650D01*
X0042594Y0048776D01*
X0043358Y0049024D01*
X0044073Y0049388D01*
X0044722Y0049860D01*
X0045290Y0050428D01*
X0045762Y0051077D01*
X0046126Y0051792D01*
X0046279Y0052263D01*
X0046907Y0050748D01*
X0048398Y0049257D01*
X0050346Y0048450D01*
X0052454Y0048450D01*
X0054402Y0049257D01*
X0055893Y0050748D01*
X0056400Y0051972D01*
X0056907Y0050748D01*
X0058398Y0049257D01*
X0060346Y0048450D01*
X0062454Y0048450D01*
X0064402Y0049257D01*
X0065893Y0050748D01*
X0066400Y0051972D01*
X0066907Y0050748D01*
X0068398Y0049257D01*
X0070346Y0048450D01*
X0072454Y0048450D01*
X0074402Y0049257D01*
X0075893Y0050748D01*
X0076700Y0052696D01*
X0076700Y0054804D01*
X0075893Y0056752D01*
X0074402Y0058243D01*
X0073400Y0058658D01*
X0073400Y0063842D01*
X0074402Y0064257D01*
X0075893Y0065748D01*
X0076700Y0067696D01*
X0076700Y0069804D01*
X0075893Y0071752D01*
X0074402Y0073243D01*
X0073400Y0073658D01*
X0073400Y0078842D01*
X0074402Y0079257D01*
X0075893Y0080748D01*
X0076700Y0082696D01*
X0076700Y0084804D01*
X0075893Y0086752D01*
X0074402Y0088243D01*
X0073400Y0088658D01*
X0073400Y0093842D01*
X0074402Y0094257D01*
X0075893Y0095748D01*
X0076700Y0097696D01*
X0076700Y0099804D01*
X0075893Y0101752D01*
X0074402Y0103243D01*
X0073921Y0103442D01*
X0094728Y0124250D01*
X0096492Y0124250D01*
X0096907Y0123248D01*
X0098398Y0121757D01*
X0099622Y0121250D01*
X0098398Y0120743D01*
X0096907Y0119252D01*
X0096100Y0117304D01*
X0096100Y0115196D01*
X0096907Y0113248D01*
X0098398Y0111757D01*
X0099622Y0111250D01*
X0098398Y0110743D01*
X0096907Y0109252D01*
X0096100Y0107304D01*
X0096100Y0105196D01*
X0096907Y0103248D01*
X0098398Y0101757D01*
X0099622Y0101250D01*
X0098398Y0100743D01*
X0096907Y0099252D01*
X0096100Y0097304D01*
X0096100Y0095196D01*
X0096907Y0093248D01*
X0098398Y0091757D01*
X0099622Y0091250D01*
X0098398Y0090743D01*
X0096907Y0089252D01*
X0096100Y0087304D01*
X0096100Y0085196D01*
X0096907Y0083248D01*
X0098398Y0081757D01*
X0099622Y0081250D01*
X0098398Y0080743D01*
X0096907Y0079252D01*
X0096100Y0077304D01*
X0096100Y0075196D01*
X0096907Y0073248D01*
X0098398Y0071757D01*
X0099622Y0071250D01*
X0098398Y0070743D01*
X0096907Y0069252D01*
X0096100Y0067304D01*
X0096100Y0065196D01*
X0096907Y0063248D01*
X0098398Y0061757D01*
X0100346Y0060950D01*
X0102454Y0060950D01*
X0104402Y0061757D01*
X0105893Y0063248D01*
X0106400Y0064472D01*
X0106400Y0036250D01*
X0006400Y0036250D01*
X0006400Y0036728D02*
X0106400Y0036728D01*
X0106400Y0037526D02*
X0006400Y0037526D01*
X0006400Y0038325D02*
X0014366Y0038325D01*
X0014789Y0038150D02*
X0018011Y0038150D01*
X0020988Y0039383D01*
X0023267Y0041662D01*
X0024500Y0044639D01*
X0024500Y0047861D01*
X0023267Y0050838D01*
X0020988Y0053117D01*
X0018011Y0054350D01*
X0014789Y0054350D01*
X0011812Y0053117D01*
X0009533Y0050838D01*
X0008300Y0047861D01*
X0008300Y0044639D01*
X0009533Y0041662D01*
X0011812Y0039383D01*
X0014789Y0038150D01*
X0012439Y0039123D02*
X0006400Y0039123D01*
X0006400Y0039922D02*
X0011273Y0039922D01*
X0010474Y0040720D02*
X0006400Y0040720D01*
X0006400Y0041519D02*
X0009676Y0041519D01*
X0009262Y0042318D02*
X0006400Y0042318D01*
X0006400Y0043116D02*
X0008931Y0043116D01*
X0008600Y0043915D02*
X0006400Y0043915D01*
X0006400Y0044713D02*
X0008300Y0044713D01*
X0008300Y0045512D02*
X0006400Y0045512D01*
X0006400Y0046310D02*
X0008300Y0046310D01*
X0008300Y0047109D02*
X0006400Y0047109D01*
X0006400Y0047907D02*
X0008319Y0047907D01*
X0008650Y0048706D02*
X0006400Y0048706D01*
X0006400Y0049504D02*
X0008981Y0049504D01*
X0009311Y0050303D02*
X0006400Y0050303D01*
X0006400Y0051101D02*
X0009796Y0051101D01*
X0010595Y0051900D02*
X0006400Y0051900D01*
X0006400Y0052698D02*
X0011393Y0052698D01*
X0012729Y0053497D02*
X0006400Y0053497D01*
X0006400Y0054295D02*
X0014656Y0054295D01*
X0012594Y0061276D02*
X0011801Y0061150D01*
X0011800Y0061150D01*
X0011800Y0065850D01*
X0016500Y0065850D01*
X0016500Y0065849D01*
X0016374Y0065056D01*
X0016126Y0064292D01*
X0015762Y0063577D01*
X0015290Y0062928D01*
X0014722Y0062360D01*
X0014073Y0061888D01*
X0013358Y0061524D01*
X0012594Y0061276D01*
X0013229Y0061482D02*
X0049400Y0061482D01*
X0049400Y0062280D02*
X0014613Y0062280D01*
X0015400Y0063079D02*
X0049400Y0063079D01*
X0049314Y0063877D02*
X0042907Y0063877D01*
X0041800Y0063877D02*
X0041000Y0063877D01*
X0041000Y0063650D02*
X0041000Y0068350D01*
X0036300Y0068350D01*
X0036300Y0068349D01*
X0036426Y0067556D01*
X0036674Y0066792D01*
X0037038Y0066077D01*
X0037510Y0065428D01*
X0038078Y0064860D01*
X0038727Y0064388D01*
X0039442Y0064024D01*
X0040206Y0063776D01*
X0040999Y0063650D01*
X0041000Y0063650D01*
X0041000Y0064676D02*
X0041800Y0064676D01*
X0041800Y0065474D02*
X0041000Y0065474D01*
X0041000Y0066273D02*
X0041800Y0066273D01*
X0041800Y0067071D02*
X0041000Y0067071D01*
X0041000Y0067870D02*
X0041800Y0067870D01*
X0041000Y0068668D02*
X0015892Y0068668D01*
X0016236Y0067870D02*
X0036376Y0067870D01*
X0036583Y0067071D02*
X0016433Y0067071D01*
X0016441Y0065474D02*
X0037476Y0065474D01*
X0036938Y0066273D02*
X0011800Y0066273D01*
X0011800Y0065474D02*
X0011000Y0065474D01*
X0011000Y0064676D02*
X0011800Y0064676D01*
X0011800Y0063877D02*
X0011000Y0063877D01*
X0011000Y0063079D02*
X0011800Y0063079D01*
X0011800Y0062280D02*
X0011000Y0062280D01*
X0011000Y0061482D02*
X0011800Y0061482D01*
X0009571Y0061482D02*
X0006400Y0061482D01*
X0006400Y0062280D02*
X0008187Y0062280D01*
X0007400Y0063079D02*
X0006400Y0063079D01*
X0006400Y0063877D02*
X0006885Y0063877D01*
X0006549Y0064676D02*
X0006400Y0064676D01*
X0006400Y0060683D02*
X0049400Y0060683D01*
X0049400Y0059885D02*
X0006400Y0059885D01*
X0006400Y0059086D02*
X0049400Y0059086D01*
X0048506Y0058288D02*
X0043728Y0058288D01*
X0044873Y0057489D02*
X0047644Y0057489D01*
X0046881Y0056691D02*
X0045567Y0056691D01*
X0046032Y0055892D02*
X0046551Y0055892D01*
X0046430Y0051900D02*
X0046161Y0051900D01*
X0045774Y0051101D02*
X0046761Y0051101D01*
X0047352Y0050303D02*
X0045165Y0050303D01*
X0044233Y0049504D02*
X0048151Y0049504D01*
X0049729Y0048706D02*
X0042152Y0048706D01*
X0041800Y0048706D02*
X0041000Y0048706D01*
X0040648Y0048706D02*
X0024150Y0048706D01*
X0023819Y0049504D02*
X0038567Y0049504D01*
X0037635Y0050303D02*
X0023489Y0050303D01*
X0023004Y0051101D02*
X0037026Y0051101D01*
X0036639Y0051900D02*
X0022205Y0051900D01*
X0021407Y0052698D02*
X0036403Y0052698D01*
X0036323Y0054295D02*
X0018144Y0054295D01*
X0020071Y0053497D02*
X0041000Y0053497D01*
X0041000Y0054295D02*
X0041800Y0054295D01*
X0041800Y0055094D02*
X0041000Y0055094D01*
X0041000Y0055892D02*
X0041800Y0055892D01*
X0041800Y0056691D02*
X0041000Y0056691D01*
X0041000Y0057489D02*
X0041800Y0057489D01*
X0041800Y0058288D02*
X0041000Y0058288D01*
X0039072Y0058288D02*
X0006400Y0058288D01*
X0006400Y0057489D02*
X0037927Y0057489D01*
X0037233Y0056691D02*
X0006400Y0056691D01*
X0006400Y0055892D02*
X0036768Y0055892D01*
X0036474Y0055094D02*
X0006400Y0055094D01*
X0014550Y0070265D02*
X0036530Y0070265D01*
X0036350Y0069467D02*
X0015367Y0069467D01*
X0014508Y0071862D02*
X0037357Y0071862D01*
X0036855Y0071064D02*
X0013088Y0071064D01*
X0015306Y0072661D02*
X0038106Y0072661D01*
X0039409Y0073459D02*
X0015981Y0073459D01*
X0016312Y0074258D02*
X0049400Y0074258D01*
X0049400Y0075056D02*
X0016642Y0075056D01*
X0016700Y0075855D02*
X0049400Y0075855D01*
X0049400Y0076653D02*
X0016700Y0076653D01*
X0016639Y0077452D02*
X0049400Y0077452D01*
X0049400Y0078251D02*
X0016308Y0078251D01*
X0015977Y0079049D02*
X0039392Y0079049D01*
X0039442Y0079024D02*
X0040206Y0078776D01*
X0040999Y0078650D01*
X0041000Y0078650D01*
X0041000Y0083350D01*
X0036300Y0083350D01*
X0036300Y0083349D01*
X0036426Y0082556D01*
X0036674Y0081792D01*
X0037038Y0081077D01*
X0037510Y0080428D01*
X0038078Y0079860D01*
X0038727Y0079388D01*
X0039442Y0079024D01*
X0038095Y0079848D02*
X0015298Y0079848D01*
X0014499Y0080646D02*
X0037351Y0080646D01*
X0036851Y0081445D02*
X0013648Y0081445D01*
X0014888Y0082243D02*
X0036527Y0082243D01*
X0036349Y0083042D02*
X0015687Y0083042D01*
X0016138Y0083840D02*
X0041000Y0083840D01*
X0041000Y0083042D02*
X0041800Y0083042D01*
X0041800Y0082243D02*
X0041000Y0082243D01*
X0041000Y0081445D02*
X0041800Y0081445D01*
X0041800Y0080646D02*
X0041000Y0080646D01*
X0041000Y0079848D02*
X0041800Y0079848D01*
X0041800Y0079049D02*
X0041000Y0079049D01*
X0043408Y0079049D02*
X0048900Y0079049D01*
X0047807Y0079848D02*
X0044705Y0079848D01*
X0045449Y0080646D02*
X0047009Y0080646D01*
X0046618Y0081445D02*
X0045949Y0081445D01*
X0046273Y0082243D02*
X0046287Y0082243D01*
X0046214Y0085437D02*
X0046362Y0085437D01*
X0046693Y0086236D02*
X0045857Y0086236D01*
X0045318Y0087034D02*
X0047189Y0087034D01*
X0047987Y0087833D02*
X0044457Y0087833D01*
X0042881Y0088631D02*
X0049335Y0088631D01*
X0049400Y0089430D02*
X0023400Y0089430D01*
X0023400Y0090228D02*
X0049400Y0090228D01*
X0049400Y0091027D02*
X0023400Y0091027D01*
X0023400Y0091825D02*
X0049400Y0091825D01*
X0049400Y0092624D02*
X0023400Y0092624D01*
X0023400Y0093422D02*
X0049400Y0093422D01*
X0048485Y0094221D02*
X0043745Y0094221D01*
X0044882Y0095019D02*
X0047635Y0095019D01*
X0046878Y0095818D02*
X0045574Y0095818D01*
X0046037Y0096616D02*
X0046547Y0096616D01*
X0046433Y0100609D02*
X0046158Y0100609D01*
X0045770Y0101407D02*
X0046764Y0101407D01*
X0047361Y0102206D02*
X0045157Y0102206D01*
X0044221Y0103004D02*
X0048159Y0103004D01*
X0049400Y0103803D02*
X0042099Y0103803D01*
X0041800Y0103803D02*
X0041000Y0103803D01*
X0040701Y0103803D02*
X0023400Y0103803D01*
X0023400Y0104601D02*
X0049400Y0104601D01*
X0049400Y0105400D02*
X0023400Y0105400D01*
X0023400Y0106198D02*
X0049400Y0106198D01*
X0049400Y0106997D02*
X0023400Y0106997D01*
X0023400Y0107795D02*
X0049400Y0107795D01*
X0049400Y0108594D02*
X0023400Y0108594D01*
X0021400Y0111250D02*
X0051400Y0111250D01*
X0051400Y0098750D01*
X0051400Y0083750D01*
X0051400Y0068750D01*
X0051400Y0053750D01*
X0053071Y0048706D02*
X0059729Y0048706D01*
X0058151Y0049504D02*
X0054649Y0049504D01*
X0055448Y0050303D02*
X0057352Y0050303D01*
X0056761Y0051101D02*
X0056039Y0051101D01*
X0056370Y0051900D02*
X0056430Y0051900D01*
X0063071Y0048706D02*
X0069729Y0048706D01*
X0068151Y0049504D02*
X0064649Y0049504D01*
X0065448Y0050303D02*
X0067352Y0050303D01*
X0066761Y0051101D02*
X0066039Y0051101D01*
X0066370Y0051900D02*
X0066430Y0051900D01*
X0071400Y0053750D02*
X0071400Y0068750D01*
X0071400Y0083750D01*
X0071400Y0098750D01*
X0071400Y0103750D01*
X0093900Y0126250D01*
X0101400Y0126250D01*
X0099331Y0121370D02*
X0091849Y0121370D01*
X0092647Y0122169D02*
X0097986Y0122169D01*
X0097188Y0122967D02*
X0093446Y0122967D01*
X0094244Y0123766D02*
X0096692Y0123766D01*
X0098226Y0120572D02*
X0091050Y0120572D01*
X0090252Y0119773D02*
X0097428Y0119773D01*
X0096792Y0118975D02*
X0089453Y0118975D01*
X0088654Y0118176D02*
X0096461Y0118176D01*
X0096130Y0117378D02*
X0087856Y0117378D01*
X0087057Y0116579D02*
X0096100Y0116579D01*
X0096100Y0115781D02*
X0086259Y0115781D01*
X0085460Y0114982D02*
X0096189Y0114982D01*
X0096519Y0114184D02*
X0084662Y0114184D01*
X0083863Y0113385D02*
X0096850Y0113385D01*
X0097568Y0112587D02*
X0083065Y0112587D01*
X0082266Y0111788D02*
X0098367Y0111788D01*
X0098993Y0110989D02*
X0081468Y0110989D01*
X0080669Y0110191D02*
X0097846Y0110191D01*
X0097047Y0109392D02*
X0079871Y0109392D01*
X0079072Y0108594D02*
X0096634Y0108594D01*
X0096303Y0107795D02*
X0078274Y0107795D01*
X0077475Y0106997D02*
X0096100Y0106997D01*
X0096100Y0106198D02*
X0076677Y0106198D01*
X0075878Y0105400D02*
X0096100Y0105400D01*
X0096346Y0104601D02*
X0075080Y0104601D01*
X0074281Y0103803D02*
X0096677Y0103803D01*
X0097150Y0103004D02*
X0074641Y0103004D01*
X0075439Y0102206D02*
X0097949Y0102206D01*
X0099242Y0101407D02*
X0076036Y0101407D01*
X0076367Y0100609D02*
X0098264Y0100609D01*
X0097465Y0099810D02*
X0076697Y0099810D01*
X0076700Y0099012D02*
X0096807Y0099012D01*
X0096477Y0098213D02*
X0076700Y0098213D01*
X0076584Y0097415D02*
X0096146Y0097415D01*
X0096100Y0096616D02*
X0076253Y0096616D01*
X0075922Y0095818D02*
X0096100Y0095818D01*
X0096173Y0095019D02*
X0075165Y0095019D01*
X0074315Y0094221D02*
X0096504Y0094221D01*
X0096835Y0093422D02*
X0073400Y0093422D01*
X0073400Y0092624D02*
X0097531Y0092624D01*
X0098329Y0091825D02*
X0073400Y0091825D01*
X0073400Y0091027D02*
X0099082Y0091027D01*
X0097883Y0090228D02*
X0073400Y0090228D01*
X0073400Y0089430D02*
X0097084Y0089430D01*
X0096650Y0088631D02*
X0073465Y0088631D01*
X0074813Y0087833D02*
X0096319Y0087833D01*
X0096100Y0087034D02*
X0075611Y0087034D01*
X0076107Y0086236D02*
X0096100Y0086236D01*
X0096100Y0085437D02*
X0076438Y0085437D01*
X0076700Y0084639D02*
X0096331Y0084639D01*
X0096662Y0083840D02*
X0076700Y0083840D01*
X0076700Y0083042D02*
X0097113Y0083042D01*
X0097912Y0082243D02*
X0076512Y0082243D01*
X0076182Y0081445D02*
X0099152Y0081445D01*
X0098301Y0080646D02*
X0075791Y0080646D01*
X0074993Y0079848D02*
X0097502Y0079848D01*
X0096823Y0079049D02*
X0073900Y0079049D01*
X0073400Y0078251D02*
X0096492Y0078251D01*
X0096161Y0077452D02*
X0073400Y0077452D01*
X0073400Y0076653D02*
X0096100Y0076653D01*
X0096100Y0075855D02*
X0073400Y0075855D01*
X0073400Y0075056D02*
X0096158Y0075056D01*
X0096488Y0074258D02*
X0073400Y0074258D01*
X0073880Y0073459D02*
X0096819Y0073459D01*
X0097494Y0072661D02*
X0074984Y0072661D01*
X0075783Y0071862D02*
X0098292Y0071862D01*
X0099172Y0071064D02*
X0076178Y0071064D01*
X0076509Y0070265D02*
X0097920Y0070265D01*
X0097122Y0069467D02*
X0076700Y0069467D01*
X0076700Y0068668D02*
X0096665Y0068668D01*
X0096334Y0067870D02*
X0076700Y0067870D01*
X0076441Y0067071D02*
X0096100Y0067071D01*
X0096100Y0066273D02*
X0076111Y0066273D01*
X0075620Y0065474D02*
X0096100Y0065474D01*
X0096315Y0064676D02*
X0074821Y0064676D01*
X0073486Y0063877D02*
X0096646Y0063877D01*
X0097076Y0063079D02*
X0073400Y0063079D01*
X0073400Y0062280D02*
X0097874Y0062280D01*
X0099062Y0061482D02*
X0073400Y0061482D01*
X0073400Y0060683D02*
X0106400Y0060683D01*
X0106400Y0059885D02*
X0073400Y0059885D01*
X0073400Y0059086D02*
X0106400Y0059086D01*
X0106400Y0058288D02*
X0074294Y0058288D01*
X0075156Y0057489D02*
X0106400Y0057489D01*
X0106400Y0056691D02*
X0075919Y0056691D01*
X0076249Y0055892D02*
X0106400Y0055892D01*
X0106400Y0055094D02*
X0076580Y0055094D01*
X0076700Y0054295D02*
X0094656Y0054295D01*
X0094789Y0054350D02*
X0091812Y0053117D01*
X0089533Y0050838D01*
X0088300Y0047861D01*
X0088300Y0044639D01*
X0089533Y0041662D01*
X0091812Y0039383D01*
X0094789Y0038150D01*
X0098011Y0038150D01*
X0100988Y0039383D01*
X0103267Y0041662D01*
X0104500Y0044639D01*
X0104500Y0047861D01*
X0103267Y0050838D01*
X0100988Y0053117D01*
X0098011Y0054350D01*
X0094789Y0054350D01*
X0092729Y0053497D02*
X0076700Y0053497D01*
X0076700Y0052698D02*
X0091393Y0052698D01*
X0090595Y0051900D02*
X0076370Y0051900D01*
X0076039Y0051101D02*
X0089796Y0051101D01*
X0089311Y0050303D02*
X0075448Y0050303D01*
X0074649Y0049504D02*
X0088981Y0049504D01*
X0088650Y0048706D02*
X0073071Y0048706D01*
X0088319Y0047907D02*
X0024481Y0047907D01*
X0024500Y0047109D02*
X0088300Y0047109D01*
X0088300Y0046310D02*
X0024500Y0046310D01*
X0024500Y0045512D02*
X0088300Y0045512D01*
X0088300Y0044713D02*
X0024500Y0044713D01*
X0024200Y0043915D02*
X0088600Y0043915D01*
X0088931Y0043116D02*
X0023869Y0043116D01*
X0023538Y0042318D02*
X0089262Y0042318D01*
X0089676Y0041519D02*
X0023124Y0041519D01*
X0022326Y0040720D02*
X0090474Y0040720D01*
X0091273Y0039922D02*
X0021527Y0039922D01*
X0020361Y0039123D02*
X0092439Y0039123D01*
X0094366Y0038325D02*
X0018434Y0038325D01*
X0015915Y0063877D02*
X0039893Y0063877D01*
X0038331Y0064676D02*
X0016251Y0064676D01*
X0022617Y0084639D02*
X0036377Y0084639D01*
X0036586Y0085437D02*
X0023400Y0085437D01*
X0023400Y0086236D02*
X0036943Y0086236D01*
X0037482Y0087034D02*
X0023400Y0087034D01*
X0023400Y0087833D02*
X0038343Y0087833D01*
X0039919Y0088631D02*
X0023400Y0088631D01*
X0021400Y0086250D02*
X0021400Y0111250D01*
X0021400Y0146250D01*
X0011400Y0146250D01*
X0012887Y0151371D02*
X0013358Y0151524D01*
X0014073Y0151888D01*
X0014722Y0152360D01*
X0015290Y0152928D01*
X0015762Y0153577D01*
X0016126Y0154292D01*
X0016374Y0155056D01*
X0016500Y0155849D01*
X0016500Y0155850D01*
X0011800Y0155850D01*
X0011800Y0156650D01*
X0011000Y0156650D01*
X0011000Y0161350D01*
X0010999Y0161350D01*
X0010206Y0161224D01*
X0009442Y0160976D01*
X0008727Y0160612D01*
X0008078Y0160140D01*
X0007510Y0159572D01*
X0007038Y0158923D01*
X0006674Y0158208D01*
X0006426Y0157444D01*
X0006400Y0157283D01*
X0006400Y0194250D01*
X0106400Y0194250D01*
X0106400Y0157283D01*
X0106374Y0157444D01*
X0106126Y0158208D01*
X0105762Y0158923D01*
X0105290Y0159572D01*
X0104722Y0160140D01*
X0104073Y0160612D01*
X0103358Y0160976D01*
X0102594Y0161224D01*
X0101801Y0161350D01*
X0101800Y0161350D01*
X0101800Y0156650D01*
X0101000Y0156650D01*
X0101000Y0161350D01*
X0100999Y0161350D01*
X0100206Y0161224D01*
X0099442Y0160976D01*
X0098727Y0160612D01*
X0098078Y0160140D01*
X0097510Y0159572D01*
X0097038Y0158923D01*
X0096674Y0158208D01*
X0096426Y0157444D01*
X0096300Y0156651D01*
X0096300Y0156650D01*
X0101000Y0156650D01*
X0101000Y0155850D01*
X0096300Y0155850D01*
X0096300Y0155849D01*
X0096426Y0155056D01*
X0096674Y0154292D01*
X0097038Y0153577D01*
X0097510Y0152928D01*
X0098078Y0152360D01*
X0098727Y0151888D01*
X0099442Y0151524D01*
X0099913Y0151371D01*
X0098398Y0150743D01*
X0096907Y0149252D01*
X0096100Y0147304D01*
X0096100Y0145196D01*
X0096907Y0143248D01*
X0098398Y0141757D01*
X0099622Y0141250D01*
X0098398Y0140743D01*
X0096907Y0139252D01*
X0096100Y0137304D01*
X0096100Y0135196D01*
X0096907Y0133248D01*
X0098398Y0131757D01*
X0099622Y0131250D01*
X0098398Y0130743D01*
X0096907Y0129252D01*
X0096492Y0128250D01*
X0093072Y0128250D01*
X0091900Y0127078D01*
X0070572Y0105750D01*
X0069400Y0104578D01*
X0069400Y0103658D01*
X0068398Y0103243D01*
X0066907Y0101752D01*
X0066400Y0100528D01*
X0065893Y0101752D01*
X0064402Y0103243D01*
X0062454Y0104050D01*
X0060346Y0104050D01*
X0058398Y0103243D01*
X0056907Y0101752D01*
X0056400Y0100528D01*
X0055893Y0101752D01*
X0054402Y0103243D01*
X0053400Y0103658D01*
X0053400Y0128842D01*
X0054402Y0129257D01*
X0055893Y0130748D01*
X0056400Y0131972D01*
X0056907Y0130748D01*
X0058398Y0129257D01*
X0060346Y0128450D01*
X0062454Y0128450D01*
X0064402Y0129257D01*
X0065893Y0130748D01*
X0066400Y0131972D01*
X0066907Y0130748D01*
X0068398Y0129257D01*
X0070346Y0128450D01*
X0072454Y0128450D01*
X0074402Y0129257D01*
X0075893Y0130748D01*
X0076700Y0132696D01*
X0076700Y0134804D01*
X0075893Y0136752D01*
X0074402Y0138243D01*
X0073400Y0138658D01*
X0073400Y0143842D01*
X0074402Y0144257D01*
X0075893Y0145748D01*
X0076700Y0147696D01*
X0076700Y0149804D01*
X0075893Y0151752D01*
X0074402Y0153243D01*
X0073400Y0153658D01*
X0073400Y0158842D01*
X0074402Y0159257D01*
X0075893Y0160748D01*
X0076700Y0162696D01*
X0076700Y0164804D01*
X0075893Y0166752D01*
X0074402Y0168243D01*
X0073400Y0168658D01*
X0073400Y0173842D01*
X0074402Y0174257D01*
X0075893Y0175748D01*
X0076700Y0177696D01*
X0076700Y0179804D01*
X0075893Y0181752D01*
X0074402Y0183243D01*
X0072454Y0184050D01*
X0070346Y0184050D01*
X0068398Y0183243D01*
X0066907Y0181752D01*
X0066400Y0180528D01*
X0065893Y0181752D01*
X0064402Y0183243D01*
X0062454Y0184050D01*
X0060346Y0184050D01*
X0058398Y0183243D01*
X0056907Y0181752D01*
X0056400Y0180528D01*
X0055893Y0181752D01*
X0054402Y0183243D01*
X0052454Y0184050D01*
X0050346Y0184050D01*
X0048398Y0183243D01*
X0046907Y0181752D01*
X0046279Y0180237D01*
X0046126Y0180708D01*
X0045762Y0181423D01*
X0045290Y0182072D01*
X0044722Y0182640D01*
X0044073Y0183112D01*
X0043358Y0183476D01*
X0042594Y0183724D01*
X0041801Y0183850D01*
X0041800Y0183850D01*
X0041800Y0179150D01*
X0041000Y0179150D01*
X0041000Y0183850D01*
X0040999Y0183850D01*
X0040206Y0183724D01*
X0039442Y0183476D01*
X0038727Y0183112D01*
X0038078Y0182640D01*
X0037510Y0182072D01*
X0037038Y0181423D01*
X0036674Y0180708D01*
X0036426Y0179944D01*
X0036300Y0179151D01*
X0036300Y0179150D01*
X0041000Y0179150D01*
X0041000Y0178350D01*
X0041800Y0178350D01*
X0041800Y0173650D01*
X0041801Y0173650D01*
X0042594Y0173776D01*
X0043358Y0174024D01*
X0044073Y0174388D01*
X0044722Y0174860D01*
X0045290Y0175428D01*
X0045762Y0176077D01*
X0046126Y0176792D01*
X0046279Y0177263D01*
X0046907Y0175748D01*
X0048398Y0174257D01*
X0049400Y0173842D01*
X0049400Y0168658D01*
X0048398Y0168243D01*
X0046907Y0166752D01*
X0046279Y0165237D01*
X0046126Y0165708D01*
X0045762Y0166423D01*
X0045290Y0167072D01*
X0044722Y0167640D01*
X0044073Y0168112D01*
X0043358Y0168476D01*
X0042594Y0168724D01*
X0041801Y0168850D01*
X0041800Y0168850D01*
X0041800Y0164150D01*
X0041000Y0164150D01*
X0041000Y0168850D01*
X0040999Y0168850D01*
X0040206Y0168724D01*
X0039442Y0168476D01*
X0038727Y0168112D01*
X0038078Y0167640D01*
X0037510Y0167072D01*
X0037038Y0166423D01*
X0036674Y0165708D01*
X0036426Y0164944D01*
X0036300Y0164151D01*
X0036300Y0164150D01*
X0041000Y0164150D01*
X0041000Y0163350D01*
X0041800Y0163350D01*
X0041800Y0158650D01*
X0041801Y0158650D01*
X0042594Y0158776D01*
X0043358Y0159024D01*
X0044073Y0159388D01*
X0044722Y0159860D01*
X0045290Y0160428D01*
X0045762Y0161077D01*
X0046126Y0161792D01*
X0046279Y0162263D01*
X0046907Y0160748D01*
X0048398Y0159257D01*
X0049400Y0158842D01*
X0049400Y0153658D01*
X0048398Y0153243D01*
X0046907Y0151752D01*
X0046279Y0150237D01*
X0046126Y0150708D01*
X0045762Y0151423D01*
X0045290Y0152072D01*
X0044722Y0152640D01*
X0044073Y0153112D01*
X0043358Y0153476D01*
X0042594Y0153724D01*
X0041801Y0153850D01*
X0041800Y0153850D01*
X0041800Y0149150D01*
X0041000Y0149150D01*
X0041000Y0153850D01*
X0040999Y0153850D01*
X0040206Y0153724D01*
X0039442Y0153476D01*
X0038727Y0153112D01*
X0038078Y0152640D01*
X0037510Y0152072D01*
X0037038Y0151423D01*
X0036674Y0150708D01*
X0036426Y0149944D01*
X0036300Y0149151D01*
X0036300Y0149150D01*
X0041000Y0149150D01*
X0041000Y0148350D01*
X0041800Y0148350D01*
X0041800Y0143650D01*
X0041801Y0143650D01*
X0042594Y0143776D01*
X0043358Y0144024D01*
X0044073Y0144388D01*
X0044722Y0144860D01*
X0045290Y0145428D01*
X0045762Y0146077D01*
X0046126Y0146792D01*
X0046279Y0147263D01*
X0046907Y0145748D01*
X0048398Y0144257D01*
X0049400Y0143842D01*
X0049400Y0138658D01*
X0048398Y0138243D01*
X0046907Y0136752D01*
X0046279Y0135237D01*
X0046126Y0135708D01*
X0045762Y0136423D01*
X0045290Y0137072D01*
X0044722Y0137640D01*
X0044073Y0138112D01*
X0043358Y0138476D01*
X0042594Y0138724D01*
X0041801Y0138850D01*
X0041800Y0138850D01*
X0041800Y0134150D01*
X0041000Y0134150D01*
X0041000Y0138850D01*
X0040999Y0138850D01*
X0040206Y0138724D01*
X0039442Y0138476D01*
X0038727Y0138112D01*
X0038078Y0137640D01*
X0037510Y0137072D01*
X0037038Y0136423D01*
X0036674Y0135708D01*
X0036426Y0134944D01*
X0036300Y0134151D01*
X0036300Y0134150D01*
X0041000Y0134150D01*
X0041000Y0133350D01*
X0041800Y0133350D01*
X0041800Y0128650D01*
X0041801Y0128650D01*
X0042594Y0128776D01*
X0043358Y0129024D01*
X0044073Y0129388D01*
X0044722Y0129860D01*
X0045290Y0130428D01*
X0045762Y0131077D01*
X0046126Y0131792D01*
X0046279Y0132263D01*
X0046907Y0130748D01*
X0048398Y0129257D01*
X0049400Y0128842D01*
X0049400Y0113250D01*
X0023400Y0113250D01*
X0023400Y0147078D01*
X0022228Y0148250D01*
X0016308Y0148250D01*
X0015893Y0149252D01*
X0014402Y0150743D01*
X0012887Y0151371D01*
X0013730Y0151714D02*
X0037249Y0151714D01*
X0036779Y0150915D02*
X0013987Y0150915D01*
X0015029Y0150117D02*
X0036482Y0150117D01*
X0036326Y0149318D02*
X0015827Y0149318D01*
X0016197Y0148520D02*
X0041000Y0148520D01*
X0041000Y0148350D02*
X0036300Y0148350D01*
X0036300Y0148349D01*
X0036426Y0147556D01*
X0036674Y0146792D01*
X0037038Y0146077D01*
X0037510Y0145428D01*
X0038078Y0144860D01*
X0038727Y0144388D01*
X0039442Y0144024D01*
X0040206Y0143776D01*
X0040999Y0143650D01*
X0041000Y0143650D01*
X0041000Y0148350D01*
X0041000Y0147721D02*
X0041800Y0147721D01*
X0041800Y0146922D02*
X0041000Y0146922D01*
X0041000Y0146124D02*
X0041800Y0146124D01*
X0041800Y0145325D02*
X0041000Y0145325D01*
X0041000Y0144527D02*
X0041800Y0144527D01*
X0041800Y0143728D02*
X0041000Y0143728D01*
X0040503Y0143728D02*
X0023400Y0143728D01*
X0023400Y0142930D02*
X0049400Y0142930D01*
X0049400Y0143728D02*
X0042297Y0143728D01*
X0044264Y0144527D02*
X0048128Y0144527D01*
X0047329Y0145325D02*
X0045188Y0145325D01*
X0045786Y0146124D02*
X0046751Y0146124D01*
X0046420Y0146922D02*
X0046169Y0146922D01*
X0046021Y0150915D02*
X0046560Y0150915D01*
X0046891Y0151714D02*
X0045551Y0151714D01*
X0044850Y0152512D02*
X0047667Y0152512D01*
X0048561Y0153311D02*
X0043683Y0153311D01*
X0041800Y0153311D02*
X0041000Y0153311D01*
X0041000Y0152512D02*
X0041800Y0152512D01*
X0041800Y0151714D02*
X0041000Y0151714D01*
X0041000Y0150915D02*
X0041800Y0150915D01*
X0041800Y0150117D02*
X0041000Y0150117D01*
X0041000Y0149318D02*
X0041800Y0149318D01*
X0039117Y0153311D02*
X0015568Y0153311D01*
X0016033Y0154109D02*
X0049400Y0154109D01*
X0049400Y0154908D02*
X0016326Y0154908D01*
X0016477Y0155706D02*
X0049400Y0155706D01*
X0049400Y0156505D02*
X0011800Y0156505D01*
X0011800Y0156650D02*
X0016500Y0156650D01*
X0016500Y0156651D01*
X0016374Y0157444D01*
X0016126Y0158208D01*
X0015762Y0158923D01*
X0015290Y0159572D01*
X0014722Y0160140D01*
X0014073Y0160612D01*
X0013358Y0160976D01*
X0012594Y0161224D01*
X0011801Y0161350D01*
X0011800Y0161350D01*
X0011800Y0156650D01*
X0011800Y0157303D02*
X0011000Y0157303D01*
X0011000Y0158102D02*
X0011800Y0158102D01*
X0011800Y0158900D02*
X0011000Y0158900D01*
X0011000Y0159699D02*
X0011800Y0159699D01*
X0011800Y0160497D02*
X0011000Y0160497D01*
X0011000Y0161296D02*
X0011800Y0161296D01*
X0012144Y0161296D02*
X0036927Y0161296D01*
X0037038Y0161077D02*
X0037510Y0160428D01*
X0038078Y0159860D01*
X0038727Y0159388D01*
X0039442Y0159024D01*
X0040206Y0158776D01*
X0040999Y0158650D01*
X0041000Y0158650D01*
X0041000Y0163350D01*
X0036300Y0163350D01*
X0036300Y0163349D01*
X0036426Y0162556D01*
X0036674Y0161792D01*
X0037038Y0161077D01*
X0037459Y0160497D02*
X0014231Y0160497D01*
X0015164Y0159699D02*
X0038300Y0159699D01*
X0036576Y0162094D02*
X0006400Y0162094D01*
X0006400Y0161296D02*
X0010656Y0161296D01*
X0008569Y0160497D02*
X0006400Y0160497D01*
X0006400Y0159699D02*
X0007636Y0159699D01*
X0007026Y0158900D02*
X0006400Y0158900D01*
X0006400Y0158102D02*
X0006639Y0158102D01*
X0006400Y0157303D02*
X0006403Y0157303D01*
X0006400Y0162893D02*
X0036372Y0162893D01*
X0036354Y0164490D02*
X0006400Y0164490D01*
X0006400Y0165288D02*
X0036537Y0165288D01*
X0036867Y0166087D02*
X0006400Y0166087D01*
X0006400Y0166885D02*
X0037374Y0166885D01*
X0038138Y0167684D02*
X0006400Y0167684D01*
X0006400Y0168482D02*
X0013987Y0168482D01*
X0014789Y0168150D02*
X0018011Y0168150D01*
X0020988Y0169383D01*
X0023267Y0171662D01*
X0024500Y0174639D01*
X0024500Y0177861D01*
X0023267Y0180838D01*
X0020988Y0183117D01*
X0018011Y0184350D01*
X0014789Y0184350D01*
X0011812Y0183117D01*
X0009533Y0180838D01*
X0008300Y0177861D01*
X0008300Y0174639D01*
X0009533Y0171662D01*
X0011812Y0169383D01*
X0014789Y0168150D01*
X0012059Y0169281D02*
X0006400Y0169281D01*
X0006400Y0170079D02*
X0011116Y0170079D01*
X0010317Y0170878D02*
X0006400Y0170878D01*
X0006400Y0171676D02*
X0009527Y0171676D01*
X0009196Y0172475D02*
X0006400Y0172475D01*
X0006400Y0173273D02*
X0008866Y0173273D01*
X0008535Y0174072D02*
X0006400Y0174072D01*
X0006400Y0174870D02*
X0008300Y0174870D01*
X0008300Y0175669D02*
X0006400Y0175669D01*
X0006400Y0176467D02*
X0008300Y0176467D01*
X0008300Y0177266D02*
X0006400Y0177266D01*
X0006400Y0178064D02*
X0008384Y0178064D01*
X0008715Y0178863D02*
X0006400Y0178863D01*
X0006400Y0179661D02*
X0009046Y0179661D01*
X0009376Y0180460D02*
X0006400Y0180460D01*
X0006400Y0181258D02*
X0009953Y0181258D01*
X0010752Y0182057D02*
X0006400Y0182057D01*
X0006400Y0182855D02*
X0011550Y0182855D01*
X0013109Y0183654D02*
X0006400Y0183654D01*
X0006400Y0184453D02*
X0106400Y0184453D01*
X0106400Y0185251D02*
X0006400Y0185251D01*
X0006400Y0186050D02*
X0106400Y0186050D01*
X0106400Y0186848D02*
X0006400Y0186848D01*
X0006400Y0187647D02*
X0106400Y0187647D01*
X0106400Y0188445D02*
X0006400Y0188445D01*
X0006400Y0189244D02*
X0106400Y0189244D01*
X0106400Y0190042D02*
X0006400Y0190042D01*
X0006400Y0190841D02*
X0106400Y0190841D01*
X0106400Y0191639D02*
X0006400Y0191639D01*
X0006400Y0192438D02*
X0106400Y0192438D01*
X0106400Y0193236D02*
X0006400Y0193236D01*
X0006400Y0194035D02*
X0106400Y0194035D01*
X0106400Y0183654D02*
X0099691Y0183654D01*
X0100988Y0183117D02*
X0098011Y0184350D01*
X0094789Y0184350D01*
X0091812Y0183117D01*
X0089533Y0180838D01*
X0088300Y0177861D01*
X0088300Y0174639D01*
X0089533Y0171662D01*
X0091812Y0169383D01*
X0094789Y0168150D01*
X0098011Y0168150D01*
X0100988Y0169383D01*
X0103267Y0171662D01*
X0104500Y0174639D01*
X0104500Y0177861D01*
X0103267Y0180838D01*
X0100988Y0183117D01*
X0101250Y0182855D02*
X0106400Y0182855D01*
X0106400Y0182057D02*
X0102048Y0182057D01*
X0102847Y0181258D02*
X0106400Y0181258D01*
X0106400Y0180460D02*
X0103424Y0180460D01*
X0103754Y0179661D02*
X0106400Y0179661D01*
X0106400Y0178863D02*
X0104085Y0178863D01*
X0104416Y0178064D02*
X0106400Y0178064D01*
X0106400Y0177266D02*
X0104500Y0177266D01*
X0104500Y0176467D02*
X0106400Y0176467D01*
X0106400Y0175669D02*
X0104500Y0175669D01*
X0104500Y0174870D02*
X0106400Y0174870D01*
X0106400Y0174072D02*
X0104265Y0174072D01*
X0103934Y0173273D02*
X0106400Y0173273D01*
X0106400Y0172475D02*
X0103604Y0172475D01*
X0103273Y0171676D02*
X0106400Y0171676D01*
X0106400Y0170878D02*
X0102483Y0170878D01*
X0101684Y0170079D02*
X0106400Y0170079D01*
X0106400Y0169281D02*
X0100741Y0169281D01*
X0098813Y0168482D02*
X0106400Y0168482D01*
X0106400Y0167684D02*
X0074962Y0167684D01*
X0075760Y0166885D02*
X0106400Y0166885D01*
X0106400Y0166087D02*
X0076169Y0166087D01*
X0076500Y0165288D02*
X0106400Y0165288D01*
X0106400Y0164490D02*
X0076700Y0164490D01*
X0076700Y0163691D02*
X0106400Y0163691D01*
X0106400Y0162893D02*
X0076700Y0162893D01*
X0076451Y0162094D02*
X0106400Y0162094D01*
X0106400Y0161296D02*
X0102144Y0161296D01*
X0101800Y0161296D02*
X0101000Y0161296D01*
X0100656Y0161296D02*
X0076120Y0161296D01*
X0075643Y0160497D02*
X0098569Y0160497D01*
X0097636Y0159699D02*
X0074844Y0159699D01*
X0073541Y0158900D02*
X0097026Y0158900D01*
X0096639Y0158102D02*
X0073400Y0158102D01*
X0073400Y0157303D02*
X0096403Y0157303D01*
X0096323Y0155706D02*
X0073400Y0155706D01*
X0073400Y0154908D02*
X0096474Y0154908D01*
X0096767Y0154109D02*
X0073400Y0154109D01*
X0074239Y0153311D02*
X0097232Y0153311D01*
X0097925Y0152512D02*
X0075133Y0152512D01*
X0075909Y0151714D02*
X0099070Y0151714D01*
X0098813Y0150915D02*
X0076240Y0150915D01*
X0076571Y0150117D02*
X0097771Y0150117D01*
X0096973Y0149318D02*
X0076700Y0149318D01*
X0076700Y0148520D02*
X0096603Y0148520D01*
X0096273Y0147721D02*
X0076700Y0147721D01*
X0076380Y0146922D02*
X0096100Y0146922D01*
X0096100Y0146124D02*
X0076049Y0146124D01*
X0075471Y0145325D02*
X0096100Y0145325D01*
X0096377Y0144527D02*
X0074672Y0144527D01*
X0073400Y0143728D02*
X0096708Y0143728D01*
X0097225Y0142930D02*
X0073400Y0142930D01*
X0073400Y0142131D02*
X0098023Y0142131D01*
X0098189Y0140534D02*
X0073400Y0140534D01*
X0073400Y0139736D02*
X0097391Y0139736D01*
X0096776Y0138937D02*
X0073400Y0138937D01*
X0074506Y0138139D02*
X0096446Y0138139D01*
X0096115Y0137340D02*
X0075305Y0137340D01*
X0075980Y0136542D02*
X0096100Y0136542D01*
X0096100Y0135743D02*
X0076311Y0135743D01*
X0076642Y0134945D02*
X0096204Y0134945D01*
X0096535Y0134146D02*
X0076700Y0134146D01*
X0076700Y0133348D02*
X0096865Y0133348D01*
X0097605Y0132549D02*
X0076639Y0132549D01*
X0076309Y0131751D02*
X0098413Y0131751D01*
X0098903Y0130952D02*
X0075978Y0130952D01*
X0075299Y0130154D02*
X0097808Y0130154D01*
X0097010Y0129355D02*
X0074501Y0129355D01*
X0072712Y0128557D02*
X0096619Y0128557D01*
X0092580Y0127758D02*
X0053400Y0127758D01*
X0053400Y0126960D02*
X0091781Y0126960D01*
X0090983Y0126161D02*
X0053400Y0126161D01*
X0053400Y0125363D02*
X0090184Y0125363D01*
X0089386Y0124564D02*
X0053400Y0124564D01*
X0053400Y0123766D02*
X0088587Y0123766D01*
X0087789Y0122967D02*
X0053400Y0122967D01*
X0053400Y0122169D02*
X0086990Y0122169D01*
X0086192Y0121370D02*
X0053400Y0121370D01*
X0053400Y0120572D02*
X0085393Y0120572D01*
X0084595Y0119773D02*
X0053400Y0119773D01*
X0053400Y0118975D02*
X0083796Y0118975D01*
X0082998Y0118176D02*
X0053400Y0118176D01*
X0053400Y0117378D02*
X0082199Y0117378D01*
X0081401Y0116579D02*
X0053400Y0116579D01*
X0053400Y0115781D02*
X0080602Y0115781D01*
X0079804Y0114982D02*
X0053400Y0114982D01*
X0053400Y0114184D02*
X0079005Y0114184D01*
X0078207Y0113385D02*
X0053400Y0113385D01*
X0053400Y0112587D02*
X0077408Y0112587D01*
X0076610Y0111788D02*
X0053400Y0111788D01*
X0053400Y0110989D02*
X0075811Y0110989D01*
X0075013Y0110191D02*
X0053400Y0110191D01*
X0053400Y0109392D02*
X0074214Y0109392D01*
X0073416Y0108594D02*
X0053400Y0108594D01*
X0053400Y0107795D02*
X0072617Y0107795D01*
X0071819Y0106997D02*
X0053400Y0106997D01*
X0053400Y0106198D02*
X0071020Y0106198D01*
X0070221Y0105400D02*
X0053400Y0105400D01*
X0053400Y0104601D02*
X0069423Y0104601D01*
X0069400Y0103803D02*
X0063051Y0103803D01*
X0064641Y0103004D02*
X0068159Y0103004D01*
X0067361Y0102206D02*
X0065439Y0102206D01*
X0066036Y0101407D02*
X0066764Y0101407D01*
X0066433Y0100609D02*
X0066367Y0100609D01*
X0059749Y0103803D02*
X0053400Y0103803D01*
X0054641Y0103004D02*
X0058159Y0103004D01*
X0057361Y0102206D02*
X0055439Y0102206D01*
X0056036Y0101407D02*
X0056764Y0101407D01*
X0056433Y0100609D02*
X0056367Y0100609D01*
X0051400Y0111250D02*
X0051400Y0133750D01*
X0051400Y0148750D01*
X0051400Y0163750D01*
X0051400Y0178750D01*
X0049390Y0183654D02*
X0042811Y0183654D01*
X0041800Y0183654D02*
X0041000Y0183654D01*
X0041000Y0182855D02*
X0041800Y0182855D01*
X0041800Y0182057D02*
X0041000Y0182057D01*
X0041000Y0181258D02*
X0041800Y0181258D01*
X0041800Y0180460D02*
X0041000Y0180460D01*
X0041000Y0179661D02*
X0041800Y0179661D01*
X0041000Y0178863D02*
X0024085Y0178863D01*
X0023754Y0179661D02*
X0036381Y0179661D01*
X0036593Y0180460D02*
X0023424Y0180460D01*
X0022847Y0181258D02*
X0036954Y0181258D01*
X0037499Y0182057D02*
X0022048Y0182057D01*
X0021250Y0182855D02*
X0038374Y0182855D01*
X0039989Y0183654D02*
X0019691Y0183654D01*
X0024416Y0178064D02*
X0036345Y0178064D01*
X0036300Y0178349D02*
X0036426Y0177556D01*
X0036674Y0176792D01*
X0037038Y0176077D01*
X0037510Y0175428D01*
X0038078Y0174860D01*
X0038727Y0174388D01*
X0039442Y0174024D01*
X0040206Y0173776D01*
X0040999Y0173650D01*
X0041000Y0173650D01*
X0041000Y0178350D01*
X0036300Y0178350D01*
X0036300Y0178349D01*
X0036520Y0177266D02*
X0024500Y0177266D01*
X0024500Y0176467D02*
X0036839Y0176467D01*
X0037335Y0175669D02*
X0024500Y0175669D01*
X0024500Y0174870D02*
X0038067Y0174870D01*
X0039348Y0174072D02*
X0024265Y0174072D01*
X0023934Y0173273D02*
X0049400Y0173273D01*
X0049400Y0172475D02*
X0023604Y0172475D01*
X0023273Y0171676D02*
X0049400Y0171676D01*
X0049400Y0170878D02*
X0022483Y0170878D01*
X0021684Y0170079D02*
X0049400Y0170079D01*
X0049400Y0169281D02*
X0020741Y0169281D01*
X0018813Y0168482D02*
X0039461Y0168482D01*
X0041000Y0168482D02*
X0041800Y0168482D01*
X0041800Y0167684D02*
X0041000Y0167684D01*
X0041000Y0166885D02*
X0041800Y0166885D01*
X0041800Y0166087D02*
X0041000Y0166087D01*
X0041000Y0165288D02*
X0041800Y0165288D01*
X0041800Y0164490D02*
X0041000Y0164490D01*
X0041000Y0163691D02*
X0006400Y0163691D01*
X0015774Y0158900D02*
X0039822Y0158900D01*
X0041000Y0158900D02*
X0041800Y0158900D01*
X0041800Y0159699D02*
X0041000Y0159699D01*
X0041000Y0160497D02*
X0041800Y0160497D01*
X0041800Y0161296D02*
X0041000Y0161296D01*
X0041000Y0162094D02*
X0041800Y0162094D01*
X0041800Y0162893D02*
X0041000Y0162893D01*
X0042978Y0158900D02*
X0049259Y0158900D01*
X0049400Y0158102D02*
X0016161Y0158102D01*
X0016397Y0157303D02*
X0049400Y0157303D01*
X0047956Y0159699D02*
X0044500Y0159699D01*
X0045341Y0160497D02*
X0047157Y0160497D01*
X0046680Y0161296D02*
X0045873Y0161296D01*
X0046224Y0162094D02*
X0046349Y0162094D01*
X0046300Y0165288D02*
X0046263Y0165288D01*
X0045933Y0166087D02*
X0046631Y0166087D01*
X0047040Y0166885D02*
X0045426Y0166885D01*
X0044662Y0167684D02*
X0047838Y0167684D01*
X0048975Y0168482D02*
X0043339Y0168482D01*
X0043452Y0174072D02*
X0048844Y0174072D01*
X0047784Y0174870D02*
X0044733Y0174870D01*
X0045465Y0175669D02*
X0046986Y0175669D01*
X0046609Y0176467D02*
X0045961Y0176467D01*
X0046207Y0180460D02*
X0046372Y0180460D01*
X0046702Y0181258D02*
X0045846Y0181258D01*
X0045301Y0182057D02*
X0047212Y0182057D01*
X0048010Y0182855D02*
X0044426Y0182855D01*
X0041800Y0178064D02*
X0041000Y0178064D01*
X0041000Y0177266D02*
X0041800Y0177266D01*
X0041800Y0176467D02*
X0041000Y0176467D01*
X0041000Y0175669D02*
X0041800Y0175669D01*
X0041800Y0174870D02*
X0041000Y0174870D01*
X0041000Y0174072D02*
X0041800Y0174072D01*
X0037950Y0152512D02*
X0014875Y0152512D01*
X0022757Y0147721D02*
X0036399Y0147721D01*
X0036631Y0146922D02*
X0023400Y0146922D01*
X0023400Y0146124D02*
X0037014Y0146124D01*
X0037612Y0145325D02*
X0023400Y0145325D01*
X0023400Y0144527D02*
X0038536Y0144527D01*
X0038780Y0138139D02*
X0023400Y0138139D01*
X0023400Y0138937D02*
X0049400Y0138937D01*
X0049400Y0139736D02*
X0023400Y0139736D01*
X0023400Y0140534D02*
X0049400Y0140534D01*
X0049400Y0141333D02*
X0023400Y0141333D01*
X0023400Y0142131D02*
X0049400Y0142131D01*
X0048294Y0138139D02*
X0044020Y0138139D01*
X0045022Y0137340D02*
X0047495Y0137340D01*
X0046820Y0136542D02*
X0045676Y0136542D01*
X0046108Y0135743D02*
X0046489Y0135743D01*
X0046491Y0131751D02*
X0046105Y0131751D01*
X0045671Y0130952D02*
X0046822Y0130952D01*
X0047501Y0130154D02*
X0045016Y0130154D01*
X0044009Y0129355D02*
X0048299Y0129355D01*
X0049400Y0128557D02*
X0023400Y0128557D01*
X0023400Y0129355D02*
X0038791Y0129355D01*
X0038727Y0129388D02*
X0039442Y0129024D01*
X0040206Y0128776D01*
X0040999Y0128650D01*
X0041000Y0128650D01*
X0041000Y0133350D01*
X0036300Y0133350D01*
X0036300Y0133349D01*
X0036426Y0132556D01*
X0036674Y0131792D01*
X0037038Y0131077D01*
X0037510Y0130428D01*
X0038078Y0129860D01*
X0038727Y0129388D01*
X0037784Y0130154D02*
X0023400Y0130154D01*
X0023400Y0130952D02*
X0037129Y0130952D01*
X0036695Y0131751D02*
X0023400Y0131751D01*
X0023400Y0132549D02*
X0036428Y0132549D01*
X0036300Y0133348D02*
X0023400Y0133348D01*
X0023400Y0134146D02*
X0041000Y0134146D01*
X0041000Y0133348D02*
X0041800Y0133348D01*
X0041800Y0132549D02*
X0041000Y0132549D01*
X0041000Y0131751D02*
X0041800Y0131751D01*
X0041800Y0130952D02*
X0041000Y0130952D01*
X0041000Y0130154D02*
X0041800Y0130154D01*
X0041800Y0129355D02*
X0041000Y0129355D01*
X0041000Y0134945D02*
X0041800Y0134945D01*
X0041800Y0135743D02*
X0041000Y0135743D01*
X0041000Y0136542D02*
X0041800Y0136542D01*
X0041800Y0137340D02*
X0041000Y0137340D01*
X0041000Y0138139D02*
X0041800Y0138139D01*
X0037778Y0137340D02*
X0023400Y0137340D01*
X0023400Y0136542D02*
X0037124Y0136542D01*
X0036692Y0135743D02*
X0023400Y0135743D01*
X0023400Y0134945D02*
X0036426Y0134945D01*
X0049400Y0127758D02*
X0023400Y0127758D01*
X0023400Y0126960D02*
X0049400Y0126960D01*
X0049400Y0126161D02*
X0023400Y0126161D01*
X0023400Y0125363D02*
X0049400Y0125363D01*
X0049400Y0124564D02*
X0023400Y0124564D01*
X0023400Y0123766D02*
X0049400Y0123766D01*
X0049400Y0122967D02*
X0023400Y0122967D01*
X0023400Y0122169D02*
X0049400Y0122169D01*
X0049400Y0121370D02*
X0023400Y0121370D01*
X0023400Y0120572D02*
X0049400Y0120572D01*
X0049400Y0119773D02*
X0023400Y0119773D01*
X0023400Y0118975D02*
X0049400Y0118975D01*
X0049400Y0118176D02*
X0023400Y0118176D01*
X0023400Y0117378D02*
X0049400Y0117378D01*
X0049400Y0116579D02*
X0023400Y0116579D01*
X0023400Y0115781D02*
X0049400Y0115781D01*
X0049400Y0114982D02*
X0023400Y0114982D01*
X0023400Y0114184D02*
X0049400Y0114184D01*
X0049400Y0113385D02*
X0023400Y0113385D01*
X0023400Y0103004D02*
X0038579Y0103004D01*
X0037643Y0102206D02*
X0023400Y0102206D01*
X0023400Y0101407D02*
X0037030Y0101407D01*
X0036642Y0100609D02*
X0023400Y0100609D01*
X0023400Y0099810D02*
X0036404Y0099810D01*
X0036300Y0098350D02*
X0036300Y0098349D01*
X0036426Y0097556D01*
X0036674Y0096792D01*
X0037038Y0096077D01*
X0037510Y0095428D01*
X0038078Y0094860D01*
X0038727Y0094388D01*
X0039442Y0094024D01*
X0040206Y0093776D01*
X0040999Y0093650D01*
X0041000Y0093650D01*
X0041000Y0098350D01*
X0036300Y0098350D01*
X0036321Y0098213D02*
X0023400Y0098213D01*
X0023400Y0097415D02*
X0036471Y0097415D01*
X0036763Y0096616D02*
X0023400Y0096616D01*
X0023400Y0095818D02*
X0037226Y0095818D01*
X0037918Y0095019D02*
X0023400Y0095019D01*
X0023400Y0094221D02*
X0039055Y0094221D01*
X0041000Y0094221D02*
X0041800Y0094221D01*
X0041800Y0095019D02*
X0041000Y0095019D01*
X0041000Y0095818D02*
X0041800Y0095818D01*
X0041800Y0096616D02*
X0041000Y0096616D01*
X0041000Y0097415D02*
X0041800Y0097415D01*
X0041800Y0098213D02*
X0041000Y0098213D01*
X0041000Y0099012D02*
X0023400Y0099012D01*
X0021400Y0086250D02*
X0011400Y0086250D01*
X0041000Y0086236D02*
X0041800Y0086236D01*
X0041800Y0087034D02*
X0041000Y0087034D01*
X0041000Y0087833D02*
X0041800Y0087833D01*
X0041800Y0088631D02*
X0041000Y0088631D01*
X0041000Y0085437D02*
X0041800Y0085437D01*
X0041800Y0084639D02*
X0041000Y0084639D01*
X0041000Y0073459D02*
X0041800Y0073459D01*
X0041800Y0072661D02*
X0041000Y0072661D01*
X0041000Y0071862D02*
X0041800Y0071862D01*
X0041800Y0071064D02*
X0041000Y0071064D01*
X0041000Y0070265D02*
X0041800Y0070265D01*
X0041800Y0069467D02*
X0041000Y0069467D01*
X0043391Y0073459D02*
X0048920Y0073459D01*
X0047816Y0072661D02*
X0044694Y0072661D01*
X0045443Y0071862D02*
X0047017Y0071862D01*
X0046622Y0071064D02*
X0045945Y0071064D01*
X0046270Y0070265D02*
X0046291Y0070265D01*
X0046217Y0067071D02*
X0046359Y0067071D01*
X0046689Y0066273D02*
X0045862Y0066273D01*
X0045324Y0065474D02*
X0047180Y0065474D01*
X0047979Y0064676D02*
X0044469Y0064676D01*
X0041800Y0052698D02*
X0041000Y0052698D01*
X0041000Y0051900D02*
X0041800Y0051900D01*
X0041800Y0051101D02*
X0041000Y0051101D01*
X0041000Y0050303D02*
X0041800Y0050303D01*
X0041800Y0049504D02*
X0041000Y0049504D01*
X0041000Y0099810D02*
X0041800Y0099810D01*
X0041800Y0100609D02*
X0041000Y0100609D01*
X0041000Y0101407D02*
X0041800Y0101407D01*
X0041800Y0102206D02*
X0041000Y0102206D01*
X0041000Y0103004D02*
X0041800Y0103004D01*
X0053400Y0128557D02*
X0060088Y0128557D01*
X0058299Y0129355D02*
X0054501Y0129355D01*
X0055299Y0130154D02*
X0057501Y0130154D01*
X0056822Y0130952D02*
X0055978Y0130952D01*
X0056309Y0131751D02*
X0056491Y0131751D01*
X0062712Y0128557D02*
X0070088Y0128557D01*
X0068299Y0129355D02*
X0064501Y0129355D01*
X0065299Y0130154D02*
X0067501Y0130154D01*
X0066822Y0130952D02*
X0065978Y0130952D01*
X0066309Y0131751D02*
X0066491Y0131751D01*
X0071400Y0133750D02*
X0071400Y0148750D01*
X0071400Y0163750D01*
X0071400Y0178750D01*
X0069390Y0183654D02*
X0063410Y0183654D01*
X0064790Y0182855D02*
X0068010Y0182855D01*
X0067212Y0182057D02*
X0065588Y0182057D01*
X0066098Y0181258D02*
X0066702Y0181258D01*
X0073410Y0183654D02*
X0093109Y0183654D01*
X0091550Y0182855D02*
X0074790Y0182855D01*
X0075588Y0182057D02*
X0090752Y0182057D01*
X0089953Y0181258D02*
X0076098Y0181258D01*
X0076428Y0180460D02*
X0089376Y0180460D01*
X0089046Y0179661D02*
X0076700Y0179661D01*
X0076700Y0178863D02*
X0088715Y0178863D01*
X0088384Y0178064D02*
X0076700Y0178064D01*
X0076522Y0177266D02*
X0088300Y0177266D01*
X0088300Y0176467D02*
X0076191Y0176467D01*
X0075814Y0175669D02*
X0088300Y0175669D01*
X0088300Y0174870D02*
X0075016Y0174870D01*
X0073956Y0174072D02*
X0088535Y0174072D01*
X0088866Y0173273D02*
X0073400Y0173273D01*
X0073400Y0172475D02*
X0089196Y0172475D01*
X0089527Y0171676D02*
X0073400Y0171676D01*
X0073400Y0170878D02*
X0090317Y0170878D01*
X0091116Y0170079D02*
X0073400Y0170079D01*
X0073400Y0169281D02*
X0092059Y0169281D01*
X0093987Y0168482D02*
X0073825Y0168482D01*
X0073400Y0156505D02*
X0101000Y0156505D01*
X0101000Y0157303D02*
X0101800Y0157303D01*
X0101800Y0158102D02*
X0101000Y0158102D01*
X0101000Y0158900D02*
X0101800Y0158900D01*
X0101800Y0159699D02*
X0101000Y0159699D01*
X0101000Y0160497D02*
X0101800Y0160497D01*
X0104231Y0160497D02*
X0106400Y0160497D01*
X0106400Y0159699D02*
X0105164Y0159699D01*
X0105774Y0158900D02*
X0106400Y0158900D01*
X0106400Y0158102D02*
X0106161Y0158102D01*
X0106397Y0157303D02*
X0106400Y0157303D01*
X0099421Y0141333D02*
X0073400Y0141333D01*
X0056702Y0181258D02*
X0056098Y0181258D01*
X0055588Y0182057D02*
X0057212Y0182057D01*
X0058010Y0182855D02*
X0054790Y0182855D01*
X0053410Y0183654D02*
X0059390Y0183654D01*
X0106154Y0063877D02*
X0106400Y0063877D01*
X0106400Y0063079D02*
X0105724Y0063079D01*
X0106400Y0062280D02*
X0104926Y0062280D01*
X0103738Y0061482D02*
X0106400Y0061482D01*
X0106400Y0054295D02*
X0098144Y0054295D01*
X0100071Y0053497D02*
X0106400Y0053497D01*
X0106400Y0052698D02*
X0101407Y0052698D01*
X0102205Y0051900D02*
X0106400Y0051900D01*
X0106400Y0051101D02*
X0103004Y0051101D01*
X0103489Y0050303D02*
X0106400Y0050303D01*
X0106400Y0049504D02*
X0103819Y0049504D01*
X0104150Y0048706D02*
X0106400Y0048706D01*
X0106400Y0047907D02*
X0104481Y0047907D01*
X0104500Y0047109D02*
X0106400Y0047109D01*
X0106400Y0046310D02*
X0104500Y0046310D01*
X0104500Y0045512D02*
X0106400Y0045512D01*
X0106400Y0044713D02*
X0104500Y0044713D01*
X0104200Y0043915D02*
X0106400Y0043915D01*
X0106400Y0043116D02*
X0103869Y0043116D01*
X0103538Y0042318D02*
X0106400Y0042318D01*
X0106400Y0041519D02*
X0103124Y0041519D01*
X0102326Y0040720D02*
X0106400Y0040720D01*
X0106400Y0039922D02*
X0101527Y0039922D01*
X0100361Y0039123D02*
X0106400Y0039123D01*
X0106400Y0038325D02*
X0098434Y0038325D01*
D11*
X0089900Y0046250D02*
X0089902Y0046411D01*
X0089908Y0046571D01*
X0089918Y0046732D01*
X0089932Y0046892D01*
X0089950Y0047052D01*
X0089971Y0047211D01*
X0089997Y0047370D01*
X0090027Y0047528D01*
X0090060Y0047685D01*
X0090098Y0047842D01*
X0090139Y0047997D01*
X0090184Y0048151D01*
X0090233Y0048304D01*
X0090286Y0048456D01*
X0090342Y0048607D01*
X0090403Y0048756D01*
X0090466Y0048904D01*
X0090534Y0049050D01*
X0090605Y0049194D01*
X0090679Y0049336D01*
X0090757Y0049477D01*
X0090839Y0049615D01*
X0090924Y0049752D01*
X0091012Y0049886D01*
X0091104Y0050018D01*
X0091199Y0050148D01*
X0091297Y0050276D01*
X0091398Y0050401D01*
X0091502Y0050523D01*
X0091609Y0050643D01*
X0091719Y0050760D01*
X0091832Y0050875D01*
X0091948Y0050986D01*
X0092067Y0051095D01*
X0092188Y0051200D01*
X0092312Y0051303D01*
X0092438Y0051403D01*
X0092566Y0051499D01*
X0092697Y0051592D01*
X0092831Y0051682D01*
X0092966Y0051769D01*
X0093104Y0051852D01*
X0093243Y0051932D01*
X0093385Y0052008D01*
X0093528Y0052081D01*
X0093673Y0052150D01*
X0093820Y0052216D01*
X0093968Y0052278D01*
X0094118Y0052336D01*
X0094269Y0052391D01*
X0094422Y0052442D01*
X0094576Y0052489D01*
X0094731Y0052532D01*
X0094887Y0052571D01*
X0095043Y0052607D01*
X0095201Y0052638D01*
X0095359Y0052666D01*
X0095518Y0052690D01*
X0095678Y0052710D01*
X0095838Y0052726D01*
X0095998Y0052738D01*
X0096159Y0052746D01*
X0096320Y0052750D01*
X0096480Y0052750D01*
X0096641Y0052746D01*
X0096802Y0052738D01*
X0096962Y0052726D01*
X0097122Y0052710D01*
X0097282Y0052690D01*
X0097441Y0052666D01*
X0097599Y0052638D01*
X0097757Y0052607D01*
X0097913Y0052571D01*
X0098069Y0052532D01*
X0098224Y0052489D01*
X0098378Y0052442D01*
X0098531Y0052391D01*
X0098682Y0052336D01*
X0098832Y0052278D01*
X0098980Y0052216D01*
X0099127Y0052150D01*
X0099272Y0052081D01*
X0099415Y0052008D01*
X0099557Y0051932D01*
X0099696Y0051852D01*
X0099834Y0051769D01*
X0099969Y0051682D01*
X0100103Y0051592D01*
X0100234Y0051499D01*
X0100362Y0051403D01*
X0100488Y0051303D01*
X0100612Y0051200D01*
X0100733Y0051095D01*
X0100852Y0050986D01*
X0100968Y0050875D01*
X0101081Y0050760D01*
X0101191Y0050643D01*
X0101298Y0050523D01*
X0101402Y0050401D01*
X0101503Y0050276D01*
X0101601Y0050148D01*
X0101696Y0050018D01*
X0101788Y0049886D01*
X0101876Y0049752D01*
X0101961Y0049615D01*
X0102043Y0049477D01*
X0102121Y0049336D01*
X0102195Y0049194D01*
X0102266Y0049050D01*
X0102334Y0048904D01*
X0102397Y0048756D01*
X0102458Y0048607D01*
X0102514Y0048456D01*
X0102567Y0048304D01*
X0102616Y0048151D01*
X0102661Y0047997D01*
X0102702Y0047842D01*
X0102740Y0047685D01*
X0102773Y0047528D01*
X0102803Y0047370D01*
X0102829Y0047211D01*
X0102850Y0047052D01*
X0102868Y0046892D01*
X0102882Y0046732D01*
X0102892Y0046571D01*
X0102898Y0046411D01*
X0102900Y0046250D01*
X0102898Y0046089D01*
X0102892Y0045929D01*
X0102882Y0045768D01*
X0102868Y0045608D01*
X0102850Y0045448D01*
X0102829Y0045289D01*
X0102803Y0045130D01*
X0102773Y0044972D01*
X0102740Y0044815D01*
X0102702Y0044658D01*
X0102661Y0044503D01*
X0102616Y0044349D01*
X0102567Y0044196D01*
X0102514Y0044044D01*
X0102458Y0043893D01*
X0102397Y0043744D01*
X0102334Y0043596D01*
X0102266Y0043450D01*
X0102195Y0043306D01*
X0102121Y0043164D01*
X0102043Y0043023D01*
X0101961Y0042885D01*
X0101876Y0042748D01*
X0101788Y0042614D01*
X0101696Y0042482D01*
X0101601Y0042352D01*
X0101503Y0042224D01*
X0101402Y0042099D01*
X0101298Y0041977D01*
X0101191Y0041857D01*
X0101081Y0041740D01*
X0100968Y0041625D01*
X0100852Y0041514D01*
X0100733Y0041405D01*
X0100612Y0041300D01*
X0100488Y0041197D01*
X0100362Y0041097D01*
X0100234Y0041001D01*
X0100103Y0040908D01*
X0099969Y0040818D01*
X0099834Y0040731D01*
X0099696Y0040648D01*
X0099557Y0040568D01*
X0099415Y0040492D01*
X0099272Y0040419D01*
X0099127Y0040350D01*
X0098980Y0040284D01*
X0098832Y0040222D01*
X0098682Y0040164D01*
X0098531Y0040109D01*
X0098378Y0040058D01*
X0098224Y0040011D01*
X0098069Y0039968D01*
X0097913Y0039929D01*
X0097757Y0039893D01*
X0097599Y0039862D01*
X0097441Y0039834D01*
X0097282Y0039810D01*
X0097122Y0039790D01*
X0096962Y0039774D01*
X0096802Y0039762D01*
X0096641Y0039754D01*
X0096480Y0039750D01*
X0096320Y0039750D01*
X0096159Y0039754D01*
X0095998Y0039762D01*
X0095838Y0039774D01*
X0095678Y0039790D01*
X0095518Y0039810D01*
X0095359Y0039834D01*
X0095201Y0039862D01*
X0095043Y0039893D01*
X0094887Y0039929D01*
X0094731Y0039968D01*
X0094576Y0040011D01*
X0094422Y0040058D01*
X0094269Y0040109D01*
X0094118Y0040164D01*
X0093968Y0040222D01*
X0093820Y0040284D01*
X0093673Y0040350D01*
X0093528Y0040419D01*
X0093385Y0040492D01*
X0093243Y0040568D01*
X0093104Y0040648D01*
X0092966Y0040731D01*
X0092831Y0040818D01*
X0092697Y0040908D01*
X0092566Y0041001D01*
X0092438Y0041097D01*
X0092312Y0041197D01*
X0092188Y0041300D01*
X0092067Y0041405D01*
X0091948Y0041514D01*
X0091832Y0041625D01*
X0091719Y0041740D01*
X0091609Y0041857D01*
X0091502Y0041977D01*
X0091398Y0042099D01*
X0091297Y0042224D01*
X0091199Y0042352D01*
X0091104Y0042482D01*
X0091012Y0042614D01*
X0090924Y0042748D01*
X0090839Y0042885D01*
X0090757Y0043023D01*
X0090679Y0043164D01*
X0090605Y0043306D01*
X0090534Y0043450D01*
X0090466Y0043596D01*
X0090403Y0043744D01*
X0090342Y0043893D01*
X0090286Y0044044D01*
X0090233Y0044196D01*
X0090184Y0044349D01*
X0090139Y0044503D01*
X0090098Y0044658D01*
X0090060Y0044815D01*
X0090027Y0044972D01*
X0089997Y0045130D01*
X0089971Y0045289D01*
X0089950Y0045448D01*
X0089932Y0045608D01*
X0089918Y0045768D01*
X0089908Y0045929D01*
X0089902Y0046089D01*
X0089900Y0046250D01*
X0089900Y0176250D02*
X0089902Y0176411D01*
X0089908Y0176571D01*
X0089918Y0176732D01*
X0089932Y0176892D01*
X0089950Y0177052D01*
X0089971Y0177211D01*
X0089997Y0177370D01*
X0090027Y0177528D01*
X0090060Y0177685D01*
X0090098Y0177842D01*
X0090139Y0177997D01*
X0090184Y0178151D01*
X0090233Y0178304D01*
X0090286Y0178456D01*
X0090342Y0178607D01*
X0090403Y0178756D01*
X0090466Y0178904D01*
X0090534Y0179050D01*
X0090605Y0179194D01*
X0090679Y0179336D01*
X0090757Y0179477D01*
X0090839Y0179615D01*
X0090924Y0179752D01*
X0091012Y0179886D01*
X0091104Y0180018D01*
X0091199Y0180148D01*
X0091297Y0180276D01*
X0091398Y0180401D01*
X0091502Y0180523D01*
X0091609Y0180643D01*
X0091719Y0180760D01*
X0091832Y0180875D01*
X0091948Y0180986D01*
X0092067Y0181095D01*
X0092188Y0181200D01*
X0092312Y0181303D01*
X0092438Y0181403D01*
X0092566Y0181499D01*
X0092697Y0181592D01*
X0092831Y0181682D01*
X0092966Y0181769D01*
X0093104Y0181852D01*
X0093243Y0181932D01*
X0093385Y0182008D01*
X0093528Y0182081D01*
X0093673Y0182150D01*
X0093820Y0182216D01*
X0093968Y0182278D01*
X0094118Y0182336D01*
X0094269Y0182391D01*
X0094422Y0182442D01*
X0094576Y0182489D01*
X0094731Y0182532D01*
X0094887Y0182571D01*
X0095043Y0182607D01*
X0095201Y0182638D01*
X0095359Y0182666D01*
X0095518Y0182690D01*
X0095678Y0182710D01*
X0095838Y0182726D01*
X0095998Y0182738D01*
X0096159Y0182746D01*
X0096320Y0182750D01*
X0096480Y0182750D01*
X0096641Y0182746D01*
X0096802Y0182738D01*
X0096962Y0182726D01*
X0097122Y0182710D01*
X0097282Y0182690D01*
X0097441Y0182666D01*
X0097599Y0182638D01*
X0097757Y0182607D01*
X0097913Y0182571D01*
X0098069Y0182532D01*
X0098224Y0182489D01*
X0098378Y0182442D01*
X0098531Y0182391D01*
X0098682Y0182336D01*
X0098832Y0182278D01*
X0098980Y0182216D01*
X0099127Y0182150D01*
X0099272Y0182081D01*
X0099415Y0182008D01*
X0099557Y0181932D01*
X0099696Y0181852D01*
X0099834Y0181769D01*
X0099969Y0181682D01*
X0100103Y0181592D01*
X0100234Y0181499D01*
X0100362Y0181403D01*
X0100488Y0181303D01*
X0100612Y0181200D01*
X0100733Y0181095D01*
X0100852Y0180986D01*
X0100968Y0180875D01*
X0101081Y0180760D01*
X0101191Y0180643D01*
X0101298Y0180523D01*
X0101402Y0180401D01*
X0101503Y0180276D01*
X0101601Y0180148D01*
X0101696Y0180018D01*
X0101788Y0179886D01*
X0101876Y0179752D01*
X0101961Y0179615D01*
X0102043Y0179477D01*
X0102121Y0179336D01*
X0102195Y0179194D01*
X0102266Y0179050D01*
X0102334Y0178904D01*
X0102397Y0178756D01*
X0102458Y0178607D01*
X0102514Y0178456D01*
X0102567Y0178304D01*
X0102616Y0178151D01*
X0102661Y0177997D01*
X0102702Y0177842D01*
X0102740Y0177685D01*
X0102773Y0177528D01*
X0102803Y0177370D01*
X0102829Y0177211D01*
X0102850Y0177052D01*
X0102868Y0176892D01*
X0102882Y0176732D01*
X0102892Y0176571D01*
X0102898Y0176411D01*
X0102900Y0176250D01*
X0102898Y0176089D01*
X0102892Y0175929D01*
X0102882Y0175768D01*
X0102868Y0175608D01*
X0102850Y0175448D01*
X0102829Y0175289D01*
X0102803Y0175130D01*
X0102773Y0174972D01*
X0102740Y0174815D01*
X0102702Y0174658D01*
X0102661Y0174503D01*
X0102616Y0174349D01*
X0102567Y0174196D01*
X0102514Y0174044D01*
X0102458Y0173893D01*
X0102397Y0173744D01*
X0102334Y0173596D01*
X0102266Y0173450D01*
X0102195Y0173306D01*
X0102121Y0173164D01*
X0102043Y0173023D01*
X0101961Y0172885D01*
X0101876Y0172748D01*
X0101788Y0172614D01*
X0101696Y0172482D01*
X0101601Y0172352D01*
X0101503Y0172224D01*
X0101402Y0172099D01*
X0101298Y0171977D01*
X0101191Y0171857D01*
X0101081Y0171740D01*
X0100968Y0171625D01*
X0100852Y0171514D01*
X0100733Y0171405D01*
X0100612Y0171300D01*
X0100488Y0171197D01*
X0100362Y0171097D01*
X0100234Y0171001D01*
X0100103Y0170908D01*
X0099969Y0170818D01*
X0099834Y0170731D01*
X0099696Y0170648D01*
X0099557Y0170568D01*
X0099415Y0170492D01*
X0099272Y0170419D01*
X0099127Y0170350D01*
X0098980Y0170284D01*
X0098832Y0170222D01*
X0098682Y0170164D01*
X0098531Y0170109D01*
X0098378Y0170058D01*
X0098224Y0170011D01*
X0098069Y0169968D01*
X0097913Y0169929D01*
X0097757Y0169893D01*
X0097599Y0169862D01*
X0097441Y0169834D01*
X0097282Y0169810D01*
X0097122Y0169790D01*
X0096962Y0169774D01*
X0096802Y0169762D01*
X0096641Y0169754D01*
X0096480Y0169750D01*
X0096320Y0169750D01*
X0096159Y0169754D01*
X0095998Y0169762D01*
X0095838Y0169774D01*
X0095678Y0169790D01*
X0095518Y0169810D01*
X0095359Y0169834D01*
X0095201Y0169862D01*
X0095043Y0169893D01*
X0094887Y0169929D01*
X0094731Y0169968D01*
X0094576Y0170011D01*
X0094422Y0170058D01*
X0094269Y0170109D01*
X0094118Y0170164D01*
X0093968Y0170222D01*
X0093820Y0170284D01*
X0093673Y0170350D01*
X0093528Y0170419D01*
X0093385Y0170492D01*
X0093243Y0170568D01*
X0093104Y0170648D01*
X0092966Y0170731D01*
X0092831Y0170818D01*
X0092697Y0170908D01*
X0092566Y0171001D01*
X0092438Y0171097D01*
X0092312Y0171197D01*
X0092188Y0171300D01*
X0092067Y0171405D01*
X0091948Y0171514D01*
X0091832Y0171625D01*
X0091719Y0171740D01*
X0091609Y0171857D01*
X0091502Y0171977D01*
X0091398Y0172099D01*
X0091297Y0172224D01*
X0091199Y0172352D01*
X0091104Y0172482D01*
X0091012Y0172614D01*
X0090924Y0172748D01*
X0090839Y0172885D01*
X0090757Y0173023D01*
X0090679Y0173164D01*
X0090605Y0173306D01*
X0090534Y0173450D01*
X0090466Y0173596D01*
X0090403Y0173744D01*
X0090342Y0173893D01*
X0090286Y0174044D01*
X0090233Y0174196D01*
X0090184Y0174349D01*
X0090139Y0174503D01*
X0090098Y0174658D01*
X0090060Y0174815D01*
X0090027Y0174972D01*
X0089997Y0175130D01*
X0089971Y0175289D01*
X0089950Y0175448D01*
X0089932Y0175608D01*
X0089918Y0175768D01*
X0089908Y0175929D01*
X0089902Y0176089D01*
X0089900Y0176250D01*
X0009900Y0176250D02*
X0009902Y0176411D01*
X0009908Y0176571D01*
X0009918Y0176732D01*
X0009932Y0176892D01*
X0009950Y0177052D01*
X0009971Y0177211D01*
X0009997Y0177370D01*
X0010027Y0177528D01*
X0010060Y0177685D01*
X0010098Y0177842D01*
X0010139Y0177997D01*
X0010184Y0178151D01*
X0010233Y0178304D01*
X0010286Y0178456D01*
X0010342Y0178607D01*
X0010403Y0178756D01*
X0010466Y0178904D01*
X0010534Y0179050D01*
X0010605Y0179194D01*
X0010679Y0179336D01*
X0010757Y0179477D01*
X0010839Y0179615D01*
X0010924Y0179752D01*
X0011012Y0179886D01*
X0011104Y0180018D01*
X0011199Y0180148D01*
X0011297Y0180276D01*
X0011398Y0180401D01*
X0011502Y0180523D01*
X0011609Y0180643D01*
X0011719Y0180760D01*
X0011832Y0180875D01*
X0011948Y0180986D01*
X0012067Y0181095D01*
X0012188Y0181200D01*
X0012312Y0181303D01*
X0012438Y0181403D01*
X0012566Y0181499D01*
X0012697Y0181592D01*
X0012831Y0181682D01*
X0012966Y0181769D01*
X0013104Y0181852D01*
X0013243Y0181932D01*
X0013385Y0182008D01*
X0013528Y0182081D01*
X0013673Y0182150D01*
X0013820Y0182216D01*
X0013968Y0182278D01*
X0014118Y0182336D01*
X0014269Y0182391D01*
X0014422Y0182442D01*
X0014576Y0182489D01*
X0014731Y0182532D01*
X0014887Y0182571D01*
X0015043Y0182607D01*
X0015201Y0182638D01*
X0015359Y0182666D01*
X0015518Y0182690D01*
X0015678Y0182710D01*
X0015838Y0182726D01*
X0015998Y0182738D01*
X0016159Y0182746D01*
X0016320Y0182750D01*
X0016480Y0182750D01*
X0016641Y0182746D01*
X0016802Y0182738D01*
X0016962Y0182726D01*
X0017122Y0182710D01*
X0017282Y0182690D01*
X0017441Y0182666D01*
X0017599Y0182638D01*
X0017757Y0182607D01*
X0017913Y0182571D01*
X0018069Y0182532D01*
X0018224Y0182489D01*
X0018378Y0182442D01*
X0018531Y0182391D01*
X0018682Y0182336D01*
X0018832Y0182278D01*
X0018980Y0182216D01*
X0019127Y0182150D01*
X0019272Y0182081D01*
X0019415Y0182008D01*
X0019557Y0181932D01*
X0019696Y0181852D01*
X0019834Y0181769D01*
X0019969Y0181682D01*
X0020103Y0181592D01*
X0020234Y0181499D01*
X0020362Y0181403D01*
X0020488Y0181303D01*
X0020612Y0181200D01*
X0020733Y0181095D01*
X0020852Y0180986D01*
X0020968Y0180875D01*
X0021081Y0180760D01*
X0021191Y0180643D01*
X0021298Y0180523D01*
X0021402Y0180401D01*
X0021503Y0180276D01*
X0021601Y0180148D01*
X0021696Y0180018D01*
X0021788Y0179886D01*
X0021876Y0179752D01*
X0021961Y0179615D01*
X0022043Y0179477D01*
X0022121Y0179336D01*
X0022195Y0179194D01*
X0022266Y0179050D01*
X0022334Y0178904D01*
X0022397Y0178756D01*
X0022458Y0178607D01*
X0022514Y0178456D01*
X0022567Y0178304D01*
X0022616Y0178151D01*
X0022661Y0177997D01*
X0022702Y0177842D01*
X0022740Y0177685D01*
X0022773Y0177528D01*
X0022803Y0177370D01*
X0022829Y0177211D01*
X0022850Y0177052D01*
X0022868Y0176892D01*
X0022882Y0176732D01*
X0022892Y0176571D01*
X0022898Y0176411D01*
X0022900Y0176250D01*
X0022898Y0176089D01*
X0022892Y0175929D01*
X0022882Y0175768D01*
X0022868Y0175608D01*
X0022850Y0175448D01*
X0022829Y0175289D01*
X0022803Y0175130D01*
X0022773Y0174972D01*
X0022740Y0174815D01*
X0022702Y0174658D01*
X0022661Y0174503D01*
X0022616Y0174349D01*
X0022567Y0174196D01*
X0022514Y0174044D01*
X0022458Y0173893D01*
X0022397Y0173744D01*
X0022334Y0173596D01*
X0022266Y0173450D01*
X0022195Y0173306D01*
X0022121Y0173164D01*
X0022043Y0173023D01*
X0021961Y0172885D01*
X0021876Y0172748D01*
X0021788Y0172614D01*
X0021696Y0172482D01*
X0021601Y0172352D01*
X0021503Y0172224D01*
X0021402Y0172099D01*
X0021298Y0171977D01*
X0021191Y0171857D01*
X0021081Y0171740D01*
X0020968Y0171625D01*
X0020852Y0171514D01*
X0020733Y0171405D01*
X0020612Y0171300D01*
X0020488Y0171197D01*
X0020362Y0171097D01*
X0020234Y0171001D01*
X0020103Y0170908D01*
X0019969Y0170818D01*
X0019834Y0170731D01*
X0019696Y0170648D01*
X0019557Y0170568D01*
X0019415Y0170492D01*
X0019272Y0170419D01*
X0019127Y0170350D01*
X0018980Y0170284D01*
X0018832Y0170222D01*
X0018682Y0170164D01*
X0018531Y0170109D01*
X0018378Y0170058D01*
X0018224Y0170011D01*
X0018069Y0169968D01*
X0017913Y0169929D01*
X0017757Y0169893D01*
X0017599Y0169862D01*
X0017441Y0169834D01*
X0017282Y0169810D01*
X0017122Y0169790D01*
X0016962Y0169774D01*
X0016802Y0169762D01*
X0016641Y0169754D01*
X0016480Y0169750D01*
X0016320Y0169750D01*
X0016159Y0169754D01*
X0015998Y0169762D01*
X0015838Y0169774D01*
X0015678Y0169790D01*
X0015518Y0169810D01*
X0015359Y0169834D01*
X0015201Y0169862D01*
X0015043Y0169893D01*
X0014887Y0169929D01*
X0014731Y0169968D01*
X0014576Y0170011D01*
X0014422Y0170058D01*
X0014269Y0170109D01*
X0014118Y0170164D01*
X0013968Y0170222D01*
X0013820Y0170284D01*
X0013673Y0170350D01*
X0013528Y0170419D01*
X0013385Y0170492D01*
X0013243Y0170568D01*
X0013104Y0170648D01*
X0012966Y0170731D01*
X0012831Y0170818D01*
X0012697Y0170908D01*
X0012566Y0171001D01*
X0012438Y0171097D01*
X0012312Y0171197D01*
X0012188Y0171300D01*
X0012067Y0171405D01*
X0011948Y0171514D01*
X0011832Y0171625D01*
X0011719Y0171740D01*
X0011609Y0171857D01*
X0011502Y0171977D01*
X0011398Y0172099D01*
X0011297Y0172224D01*
X0011199Y0172352D01*
X0011104Y0172482D01*
X0011012Y0172614D01*
X0010924Y0172748D01*
X0010839Y0172885D01*
X0010757Y0173023D01*
X0010679Y0173164D01*
X0010605Y0173306D01*
X0010534Y0173450D01*
X0010466Y0173596D01*
X0010403Y0173744D01*
X0010342Y0173893D01*
X0010286Y0174044D01*
X0010233Y0174196D01*
X0010184Y0174349D01*
X0010139Y0174503D01*
X0010098Y0174658D01*
X0010060Y0174815D01*
X0010027Y0174972D01*
X0009997Y0175130D01*
X0009971Y0175289D01*
X0009950Y0175448D01*
X0009932Y0175608D01*
X0009918Y0175768D01*
X0009908Y0175929D01*
X0009902Y0176089D01*
X0009900Y0176250D01*
X0009900Y0046250D02*
X0009902Y0046411D01*
X0009908Y0046571D01*
X0009918Y0046732D01*
X0009932Y0046892D01*
X0009950Y0047052D01*
X0009971Y0047211D01*
X0009997Y0047370D01*
X0010027Y0047528D01*
X0010060Y0047685D01*
X0010098Y0047842D01*
X0010139Y0047997D01*
X0010184Y0048151D01*
X0010233Y0048304D01*
X0010286Y0048456D01*
X0010342Y0048607D01*
X0010403Y0048756D01*
X0010466Y0048904D01*
X0010534Y0049050D01*
X0010605Y0049194D01*
X0010679Y0049336D01*
X0010757Y0049477D01*
X0010839Y0049615D01*
X0010924Y0049752D01*
X0011012Y0049886D01*
X0011104Y0050018D01*
X0011199Y0050148D01*
X0011297Y0050276D01*
X0011398Y0050401D01*
X0011502Y0050523D01*
X0011609Y0050643D01*
X0011719Y0050760D01*
X0011832Y0050875D01*
X0011948Y0050986D01*
X0012067Y0051095D01*
X0012188Y0051200D01*
X0012312Y0051303D01*
X0012438Y0051403D01*
X0012566Y0051499D01*
X0012697Y0051592D01*
X0012831Y0051682D01*
X0012966Y0051769D01*
X0013104Y0051852D01*
X0013243Y0051932D01*
X0013385Y0052008D01*
X0013528Y0052081D01*
X0013673Y0052150D01*
X0013820Y0052216D01*
X0013968Y0052278D01*
X0014118Y0052336D01*
X0014269Y0052391D01*
X0014422Y0052442D01*
X0014576Y0052489D01*
X0014731Y0052532D01*
X0014887Y0052571D01*
X0015043Y0052607D01*
X0015201Y0052638D01*
X0015359Y0052666D01*
X0015518Y0052690D01*
X0015678Y0052710D01*
X0015838Y0052726D01*
X0015998Y0052738D01*
X0016159Y0052746D01*
X0016320Y0052750D01*
X0016480Y0052750D01*
X0016641Y0052746D01*
X0016802Y0052738D01*
X0016962Y0052726D01*
X0017122Y0052710D01*
X0017282Y0052690D01*
X0017441Y0052666D01*
X0017599Y0052638D01*
X0017757Y0052607D01*
X0017913Y0052571D01*
X0018069Y0052532D01*
X0018224Y0052489D01*
X0018378Y0052442D01*
X0018531Y0052391D01*
X0018682Y0052336D01*
X0018832Y0052278D01*
X0018980Y0052216D01*
X0019127Y0052150D01*
X0019272Y0052081D01*
X0019415Y0052008D01*
X0019557Y0051932D01*
X0019696Y0051852D01*
X0019834Y0051769D01*
X0019969Y0051682D01*
X0020103Y0051592D01*
X0020234Y0051499D01*
X0020362Y0051403D01*
X0020488Y0051303D01*
X0020612Y0051200D01*
X0020733Y0051095D01*
X0020852Y0050986D01*
X0020968Y0050875D01*
X0021081Y0050760D01*
X0021191Y0050643D01*
X0021298Y0050523D01*
X0021402Y0050401D01*
X0021503Y0050276D01*
X0021601Y0050148D01*
X0021696Y0050018D01*
X0021788Y0049886D01*
X0021876Y0049752D01*
X0021961Y0049615D01*
X0022043Y0049477D01*
X0022121Y0049336D01*
X0022195Y0049194D01*
X0022266Y0049050D01*
X0022334Y0048904D01*
X0022397Y0048756D01*
X0022458Y0048607D01*
X0022514Y0048456D01*
X0022567Y0048304D01*
X0022616Y0048151D01*
X0022661Y0047997D01*
X0022702Y0047842D01*
X0022740Y0047685D01*
X0022773Y0047528D01*
X0022803Y0047370D01*
X0022829Y0047211D01*
X0022850Y0047052D01*
X0022868Y0046892D01*
X0022882Y0046732D01*
X0022892Y0046571D01*
X0022898Y0046411D01*
X0022900Y0046250D01*
X0022898Y0046089D01*
X0022892Y0045929D01*
X0022882Y0045768D01*
X0022868Y0045608D01*
X0022850Y0045448D01*
X0022829Y0045289D01*
X0022803Y0045130D01*
X0022773Y0044972D01*
X0022740Y0044815D01*
X0022702Y0044658D01*
X0022661Y0044503D01*
X0022616Y0044349D01*
X0022567Y0044196D01*
X0022514Y0044044D01*
X0022458Y0043893D01*
X0022397Y0043744D01*
X0022334Y0043596D01*
X0022266Y0043450D01*
X0022195Y0043306D01*
X0022121Y0043164D01*
X0022043Y0043023D01*
X0021961Y0042885D01*
X0021876Y0042748D01*
X0021788Y0042614D01*
X0021696Y0042482D01*
X0021601Y0042352D01*
X0021503Y0042224D01*
X0021402Y0042099D01*
X0021298Y0041977D01*
X0021191Y0041857D01*
X0021081Y0041740D01*
X0020968Y0041625D01*
X0020852Y0041514D01*
X0020733Y0041405D01*
X0020612Y0041300D01*
X0020488Y0041197D01*
X0020362Y0041097D01*
X0020234Y0041001D01*
X0020103Y0040908D01*
X0019969Y0040818D01*
X0019834Y0040731D01*
X0019696Y0040648D01*
X0019557Y0040568D01*
X0019415Y0040492D01*
X0019272Y0040419D01*
X0019127Y0040350D01*
X0018980Y0040284D01*
X0018832Y0040222D01*
X0018682Y0040164D01*
X0018531Y0040109D01*
X0018378Y0040058D01*
X0018224Y0040011D01*
X0018069Y0039968D01*
X0017913Y0039929D01*
X0017757Y0039893D01*
X0017599Y0039862D01*
X0017441Y0039834D01*
X0017282Y0039810D01*
X0017122Y0039790D01*
X0016962Y0039774D01*
X0016802Y0039762D01*
X0016641Y0039754D01*
X0016480Y0039750D01*
X0016320Y0039750D01*
X0016159Y0039754D01*
X0015998Y0039762D01*
X0015838Y0039774D01*
X0015678Y0039790D01*
X0015518Y0039810D01*
X0015359Y0039834D01*
X0015201Y0039862D01*
X0015043Y0039893D01*
X0014887Y0039929D01*
X0014731Y0039968D01*
X0014576Y0040011D01*
X0014422Y0040058D01*
X0014269Y0040109D01*
X0014118Y0040164D01*
X0013968Y0040222D01*
X0013820Y0040284D01*
X0013673Y0040350D01*
X0013528Y0040419D01*
X0013385Y0040492D01*
X0013243Y0040568D01*
X0013104Y0040648D01*
X0012966Y0040731D01*
X0012831Y0040818D01*
X0012697Y0040908D01*
X0012566Y0041001D01*
X0012438Y0041097D01*
X0012312Y0041197D01*
X0012188Y0041300D01*
X0012067Y0041405D01*
X0011948Y0041514D01*
X0011832Y0041625D01*
X0011719Y0041740D01*
X0011609Y0041857D01*
X0011502Y0041977D01*
X0011398Y0042099D01*
X0011297Y0042224D01*
X0011199Y0042352D01*
X0011104Y0042482D01*
X0011012Y0042614D01*
X0010924Y0042748D01*
X0010839Y0042885D01*
X0010757Y0043023D01*
X0010679Y0043164D01*
X0010605Y0043306D01*
X0010534Y0043450D01*
X0010466Y0043596D01*
X0010403Y0043744D01*
X0010342Y0043893D01*
X0010286Y0044044D01*
X0010233Y0044196D01*
X0010184Y0044349D01*
X0010139Y0044503D01*
X0010098Y0044658D01*
X0010060Y0044815D01*
X0010027Y0044972D01*
X0009997Y0045130D01*
X0009971Y0045289D01*
X0009950Y0045448D01*
X0009932Y0045608D01*
X0009918Y0045768D01*
X0009908Y0045929D01*
X0009902Y0046089D01*
X0009900Y0046250D01*
D12*
X0011400Y0066250D03*
X0011400Y0076250D03*
X0011400Y0086250D03*
X0011400Y0096250D03*
X0011400Y0106250D03*
X0011400Y0116250D03*
X0011400Y0126250D03*
X0011400Y0136250D03*
X0011400Y0146250D03*
X0011400Y0156250D03*
X0041400Y0148750D03*
X0041400Y0163750D03*
X0041400Y0178750D03*
X0051400Y0178750D03*
X0051400Y0163750D03*
X0051400Y0148750D03*
X0051400Y0133750D03*
X0041400Y0133750D03*
X0041400Y0098750D03*
X0041400Y0083750D03*
X0041400Y0068750D03*
X0041400Y0053750D03*
X0051400Y0053750D03*
X0051400Y0068750D03*
X0051400Y0083750D03*
X0051400Y0098750D03*
X0061400Y0098750D03*
X0061400Y0083750D03*
X0061400Y0068750D03*
X0061400Y0053750D03*
X0071400Y0053750D03*
X0071400Y0068750D03*
X0071400Y0083750D03*
X0071400Y0098750D03*
X0071400Y0133750D03*
X0071400Y0148750D03*
X0071400Y0163750D03*
X0071400Y0178750D03*
X0061400Y0178750D03*
X0061400Y0163750D03*
X0061400Y0148750D03*
X0061400Y0133750D03*
X0101400Y0136250D03*
X0101400Y0126250D03*
X0101400Y0116250D03*
X0101400Y0106250D03*
X0101400Y0096250D03*
X0101400Y0086250D03*
X0101400Y0076250D03*
X0101400Y0066250D03*
X0101400Y0146250D03*
X0101400Y0156250D03*
M02*
