G75*
%MOIN*%
%OFA0B0*%
%FSLAX25Y25*%
%IPPOS*%
%LPD*%
%AMOC8*
5,1,8,0,0,1.08239X$1,22.5*
%
%ADD10C,0.00800*%
%ADD11C,0.00000*%
%ADD12C,0.13800*%
%ADD13C,0.08200*%
D10*
X0001400Y0032750D02*
X0001400Y0196250D01*
X0111400Y0196250D01*
X0111400Y0032750D01*
X0001400Y0032750D01*
D11*
X0009900Y0046250D02*
X0009902Y0046411D01*
X0009908Y0046571D01*
X0009918Y0046732D01*
X0009932Y0046892D01*
X0009950Y0047052D01*
X0009971Y0047211D01*
X0009997Y0047370D01*
X0010027Y0047528D01*
X0010060Y0047685D01*
X0010098Y0047842D01*
X0010139Y0047997D01*
X0010184Y0048151D01*
X0010233Y0048304D01*
X0010286Y0048456D01*
X0010342Y0048607D01*
X0010403Y0048756D01*
X0010466Y0048904D01*
X0010534Y0049050D01*
X0010605Y0049194D01*
X0010679Y0049336D01*
X0010757Y0049477D01*
X0010839Y0049615D01*
X0010924Y0049752D01*
X0011012Y0049886D01*
X0011104Y0050018D01*
X0011199Y0050148D01*
X0011297Y0050276D01*
X0011398Y0050401D01*
X0011502Y0050523D01*
X0011609Y0050643D01*
X0011719Y0050760D01*
X0011832Y0050875D01*
X0011948Y0050986D01*
X0012067Y0051095D01*
X0012188Y0051200D01*
X0012312Y0051303D01*
X0012438Y0051403D01*
X0012566Y0051499D01*
X0012697Y0051592D01*
X0012831Y0051682D01*
X0012966Y0051769D01*
X0013104Y0051852D01*
X0013243Y0051932D01*
X0013385Y0052008D01*
X0013528Y0052081D01*
X0013673Y0052150D01*
X0013820Y0052216D01*
X0013968Y0052278D01*
X0014118Y0052336D01*
X0014269Y0052391D01*
X0014422Y0052442D01*
X0014576Y0052489D01*
X0014731Y0052532D01*
X0014887Y0052571D01*
X0015043Y0052607D01*
X0015201Y0052638D01*
X0015359Y0052666D01*
X0015518Y0052690D01*
X0015678Y0052710D01*
X0015838Y0052726D01*
X0015998Y0052738D01*
X0016159Y0052746D01*
X0016320Y0052750D01*
X0016480Y0052750D01*
X0016641Y0052746D01*
X0016802Y0052738D01*
X0016962Y0052726D01*
X0017122Y0052710D01*
X0017282Y0052690D01*
X0017441Y0052666D01*
X0017599Y0052638D01*
X0017757Y0052607D01*
X0017913Y0052571D01*
X0018069Y0052532D01*
X0018224Y0052489D01*
X0018378Y0052442D01*
X0018531Y0052391D01*
X0018682Y0052336D01*
X0018832Y0052278D01*
X0018980Y0052216D01*
X0019127Y0052150D01*
X0019272Y0052081D01*
X0019415Y0052008D01*
X0019557Y0051932D01*
X0019696Y0051852D01*
X0019834Y0051769D01*
X0019969Y0051682D01*
X0020103Y0051592D01*
X0020234Y0051499D01*
X0020362Y0051403D01*
X0020488Y0051303D01*
X0020612Y0051200D01*
X0020733Y0051095D01*
X0020852Y0050986D01*
X0020968Y0050875D01*
X0021081Y0050760D01*
X0021191Y0050643D01*
X0021298Y0050523D01*
X0021402Y0050401D01*
X0021503Y0050276D01*
X0021601Y0050148D01*
X0021696Y0050018D01*
X0021788Y0049886D01*
X0021876Y0049752D01*
X0021961Y0049615D01*
X0022043Y0049477D01*
X0022121Y0049336D01*
X0022195Y0049194D01*
X0022266Y0049050D01*
X0022334Y0048904D01*
X0022397Y0048756D01*
X0022458Y0048607D01*
X0022514Y0048456D01*
X0022567Y0048304D01*
X0022616Y0048151D01*
X0022661Y0047997D01*
X0022702Y0047842D01*
X0022740Y0047685D01*
X0022773Y0047528D01*
X0022803Y0047370D01*
X0022829Y0047211D01*
X0022850Y0047052D01*
X0022868Y0046892D01*
X0022882Y0046732D01*
X0022892Y0046571D01*
X0022898Y0046411D01*
X0022900Y0046250D01*
X0022898Y0046089D01*
X0022892Y0045929D01*
X0022882Y0045768D01*
X0022868Y0045608D01*
X0022850Y0045448D01*
X0022829Y0045289D01*
X0022803Y0045130D01*
X0022773Y0044972D01*
X0022740Y0044815D01*
X0022702Y0044658D01*
X0022661Y0044503D01*
X0022616Y0044349D01*
X0022567Y0044196D01*
X0022514Y0044044D01*
X0022458Y0043893D01*
X0022397Y0043744D01*
X0022334Y0043596D01*
X0022266Y0043450D01*
X0022195Y0043306D01*
X0022121Y0043164D01*
X0022043Y0043023D01*
X0021961Y0042885D01*
X0021876Y0042748D01*
X0021788Y0042614D01*
X0021696Y0042482D01*
X0021601Y0042352D01*
X0021503Y0042224D01*
X0021402Y0042099D01*
X0021298Y0041977D01*
X0021191Y0041857D01*
X0021081Y0041740D01*
X0020968Y0041625D01*
X0020852Y0041514D01*
X0020733Y0041405D01*
X0020612Y0041300D01*
X0020488Y0041197D01*
X0020362Y0041097D01*
X0020234Y0041001D01*
X0020103Y0040908D01*
X0019969Y0040818D01*
X0019834Y0040731D01*
X0019696Y0040648D01*
X0019557Y0040568D01*
X0019415Y0040492D01*
X0019272Y0040419D01*
X0019127Y0040350D01*
X0018980Y0040284D01*
X0018832Y0040222D01*
X0018682Y0040164D01*
X0018531Y0040109D01*
X0018378Y0040058D01*
X0018224Y0040011D01*
X0018069Y0039968D01*
X0017913Y0039929D01*
X0017757Y0039893D01*
X0017599Y0039862D01*
X0017441Y0039834D01*
X0017282Y0039810D01*
X0017122Y0039790D01*
X0016962Y0039774D01*
X0016802Y0039762D01*
X0016641Y0039754D01*
X0016480Y0039750D01*
X0016320Y0039750D01*
X0016159Y0039754D01*
X0015998Y0039762D01*
X0015838Y0039774D01*
X0015678Y0039790D01*
X0015518Y0039810D01*
X0015359Y0039834D01*
X0015201Y0039862D01*
X0015043Y0039893D01*
X0014887Y0039929D01*
X0014731Y0039968D01*
X0014576Y0040011D01*
X0014422Y0040058D01*
X0014269Y0040109D01*
X0014118Y0040164D01*
X0013968Y0040222D01*
X0013820Y0040284D01*
X0013673Y0040350D01*
X0013528Y0040419D01*
X0013385Y0040492D01*
X0013243Y0040568D01*
X0013104Y0040648D01*
X0012966Y0040731D01*
X0012831Y0040818D01*
X0012697Y0040908D01*
X0012566Y0041001D01*
X0012438Y0041097D01*
X0012312Y0041197D01*
X0012188Y0041300D01*
X0012067Y0041405D01*
X0011948Y0041514D01*
X0011832Y0041625D01*
X0011719Y0041740D01*
X0011609Y0041857D01*
X0011502Y0041977D01*
X0011398Y0042099D01*
X0011297Y0042224D01*
X0011199Y0042352D01*
X0011104Y0042482D01*
X0011012Y0042614D01*
X0010924Y0042748D01*
X0010839Y0042885D01*
X0010757Y0043023D01*
X0010679Y0043164D01*
X0010605Y0043306D01*
X0010534Y0043450D01*
X0010466Y0043596D01*
X0010403Y0043744D01*
X0010342Y0043893D01*
X0010286Y0044044D01*
X0010233Y0044196D01*
X0010184Y0044349D01*
X0010139Y0044503D01*
X0010098Y0044658D01*
X0010060Y0044815D01*
X0010027Y0044972D01*
X0009997Y0045130D01*
X0009971Y0045289D01*
X0009950Y0045448D01*
X0009932Y0045608D01*
X0009918Y0045768D01*
X0009908Y0045929D01*
X0009902Y0046089D01*
X0009900Y0046250D01*
X0009900Y0176250D02*
X0009902Y0176411D01*
X0009908Y0176571D01*
X0009918Y0176732D01*
X0009932Y0176892D01*
X0009950Y0177052D01*
X0009971Y0177211D01*
X0009997Y0177370D01*
X0010027Y0177528D01*
X0010060Y0177685D01*
X0010098Y0177842D01*
X0010139Y0177997D01*
X0010184Y0178151D01*
X0010233Y0178304D01*
X0010286Y0178456D01*
X0010342Y0178607D01*
X0010403Y0178756D01*
X0010466Y0178904D01*
X0010534Y0179050D01*
X0010605Y0179194D01*
X0010679Y0179336D01*
X0010757Y0179477D01*
X0010839Y0179615D01*
X0010924Y0179752D01*
X0011012Y0179886D01*
X0011104Y0180018D01*
X0011199Y0180148D01*
X0011297Y0180276D01*
X0011398Y0180401D01*
X0011502Y0180523D01*
X0011609Y0180643D01*
X0011719Y0180760D01*
X0011832Y0180875D01*
X0011948Y0180986D01*
X0012067Y0181095D01*
X0012188Y0181200D01*
X0012312Y0181303D01*
X0012438Y0181403D01*
X0012566Y0181499D01*
X0012697Y0181592D01*
X0012831Y0181682D01*
X0012966Y0181769D01*
X0013104Y0181852D01*
X0013243Y0181932D01*
X0013385Y0182008D01*
X0013528Y0182081D01*
X0013673Y0182150D01*
X0013820Y0182216D01*
X0013968Y0182278D01*
X0014118Y0182336D01*
X0014269Y0182391D01*
X0014422Y0182442D01*
X0014576Y0182489D01*
X0014731Y0182532D01*
X0014887Y0182571D01*
X0015043Y0182607D01*
X0015201Y0182638D01*
X0015359Y0182666D01*
X0015518Y0182690D01*
X0015678Y0182710D01*
X0015838Y0182726D01*
X0015998Y0182738D01*
X0016159Y0182746D01*
X0016320Y0182750D01*
X0016480Y0182750D01*
X0016641Y0182746D01*
X0016802Y0182738D01*
X0016962Y0182726D01*
X0017122Y0182710D01*
X0017282Y0182690D01*
X0017441Y0182666D01*
X0017599Y0182638D01*
X0017757Y0182607D01*
X0017913Y0182571D01*
X0018069Y0182532D01*
X0018224Y0182489D01*
X0018378Y0182442D01*
X0018531Y0182391D01*
X0018682Y0182336D01*
X0018832Y0182278D01*
X0018980Y0182216D01*
X0019127Y0182150D01*
X0019272Y0182081D01*
X0019415Y0182008D01*
X0019557Y0181932D01*
X0019696Y0181852D01*
X0019834Y0181769D01*
X0019969Y0181682D01*
X0020103Y0181592D01*
X0020234Y0181499D01*
X0020362Y0181403D01*
X0020488Y0181303D01*
X0020612Y0181200D01*
X0020733Y0181095D01*
X0020852Y0180986D01*
X0020968Y0180875D01*
X0021081Y0180760D01*
X0021191Y0180643D01*
X0021298Y0180523D01*
X0021402Y0180401D01*
X0021503Y0180276D01*
X0021601Y0180148D01*
X0021696Y0180018D01*
X0021788Y0179886D01*
X0021876Y0179752D01*
X0021961Y0179615D01*
X0022043Y0179477D01*
X0022121Y0179336D01*
X0022195Y0179194D01*
X0022266Y0179050D01*
X0022334Y0178904D01*
X0022397Y0178756D01*
X0022458Y0178607D01*
X0022514Y0178456D01*
X0022567Y0178304D01*
X0022616Y0178151D01*
X0022661Y0177997D01*
X0022702Y0177842D01*
X0022740Y0177685D01*
X0022773Y0177528D01*
X0022803Y0177370D01*
X0022829Y0177211D01*
X0022850Y0177052D01*
X0022868Y0176892D01*
X0022882Y0176732D01*
X0022892Y0176571D01*
X0022898Y0176411D01*
X0022900Y0176250D01*
X0022898Y0176089D01*
X0022892Y0175929D01*
X0022882Y0175768D01*
X0022868Y0175608D01*
X0022850Y0175448D01*
X0022829Y0175289D01*
X0022803Y0175130D01*
X0022773Y0174972D01*
X0022740Y0174815D01*
X0022702Y0174658D01*
X0022661Y0174503D01*
X0022616Y0174349D01*
X0022567Y0174196D01*
X0022514Y0174044D01*
X0022458Y0173893D01*
X0022397Y0173744D01*
X0022334Y0173596D01*
X0022266Y0173450D01*
X0022195Y0173306D01*
X0022121Y0173164D01*
X0022043Y0173023D01*
X0021961Y0172885D01*
X0021876Y0172748D01*
X0021788Y0172614D01*
X0021696Y0172482D01*
X0021601Y0172352D01*
X0021503Y0172224D01*
X0021402Y0172099D01*
X0021298Y0171977D01*
X0021191Y0171857D01*
X0021081Y0171740D01*
X0020968Y0171625D01*
X0020852Y0171514D01*
X0020733Y0171405D01*
X0020612Y0171300D01*
X0020488Y0171197D01*
X0020362Y0171097D01*
X0020234Y0171001D01*
X0020103Y0170908D01*
X0019969Y0170818D01*
X0019834Y0170731D01*
X0019696Y0170648D01*
X0019557Y0170568D01*
X0019415Y0170492D01*
X0019272Y0170419D01*
X0019127Y0170350D01*
X0018980Y0170284D01*
X0018832Y0170222D01*
X0018682Y0170164D01*
X0018531Y0170109D01*
X0018378Y0170058D01*
X0018224Y0170011D01*
X0018069Y0169968D01*
X0017913Y0169929D01*
X0017757Y0169893D01*
X0017599Y0169862D01*
X0017441Y0169834D01*
X0017282Y0169810D01*
X0017122Y0169790D01*
X0016962Y0169774D01*
X0016802Y0169762D01*
X0016641Y0169754D01*
X0016480Y0169750D01*
X0016320Y0169750D01*
X0016159Y0169754D01*
X0015998Y0169762D01*
X0015838Y0169774D01*
X0015678Y0169790D01*
X0015518Y0169810D01*
X0015359Y0169834D01*
X0015201Y0169862D01*
X0015043Y0169893D01*
X0014887Y0169929D01*
X0014731Y0169968D01*
X0014576Y0170011D01*
X0014422Y0170058D01*
X0014269Y0170109D01*
X0014118Y0170164D01*
X0013968Y0170222D01*
X0013820Y0170284D01*
X0013673Y0170350D01*
X0013528Y0170419D01*
X0013385Y0170492D01*
X0013243Y0170568D01*
X0013104Y0170648D01*
X0012966Y0170731D01*
X0012831Y0170818D01*
X0012697Y0170908D01*
X0012566Y0171001D01*
X0012438Y0171097D01*
X0012312Y0171197D01*
X0012188Y0171300D01*
X0012067Y0171405D01*
X0011948Y0171514D01*
X0011832Y0171625D01*
X0011719Y0171740D01*
X0011609Y0171857D01*
X0011502Y0171977D01*
X0011398Y0172099D01*
X0011297Y0172224D01*
X0011199Y0172352D01*
X0011104Y0172482D01*
X0011012Y0172614D01*
X0010924Y0172748D01*
X0010839Y0172885D01*
X0010757Y0173023D01*
X0010679Y0173164D01*
X0010605Y0173306D01*
X0010534Y0173450D01*
X0010466Y0173596D01*
X0010403Y0173744D01*
X0010342Y0173893D01*
X0010286Y0174044D01*
X0010233Y0174196D01*
X0010184Y0174349D01*
X0010139Y0174503D01*
X0010098Y0174658D01*
X0010060Y0174815D01*
X0010027Y0174972D01*
X0009997Y0175130D01*
X0009971Y0175289D01*
X0009950Y0175448D01*
X0009932Y0175608D01*
X0009918Y0175768D01*
X0009908Y0175929D01*
X0009902Y0176089D01*
X0009900Y0176250D01*
X0089900Y0176250D02*
X0089902Y0176411D01*
X0089908Y0176571D01*
X0089918Y0176732D01*
X0089932Y0176892D01*
X0089950Y0177052D01*
X0089971Y0177211D01*
X0089997Y0177370D01*
X0090027Y0177528D01*
X0090060Y0177685D01*
X0090098Y0177842D01*
X0090139Y0177997D01*
X0090184Y0178151D01*
X0090233Y0178304D01*
X0090286Y0178456D01*
X0090342Y0178607D01*
X0090403Y0178756D01*
X0090466Y0178904D01*
X0090534Y0179050D01*
X0090605Y0179194D01*
X0090679Y0179336D01*
X0090757Y0179477D01*
X0090839Y0179615D01*
X0090924Y0179752D01*
X0091012Y0179886D01*
X0091104Y0180018D01*
X0091199Y0180148D01*
X0091297Y0180276D01*
X0091398Y0180401D01*
X0091502Y0180523D01*
X0091609Y0180643D01*
X0091719Y0180760D01*
X0091832Y0180875D01*
X0091948Y0180986D01*
X0092067Y0181095D01*
X0092188Y0181200D01*
X0092312Y0181303D01*
X0092438Y0181403D01*
X0092566Y0181499D01*
X0092697Y0181592D01*
X0092831Y0181682D01*
X0092966Y0181769D01*
X0093104Y0181852D01*
X0093243Y0181932D01*
X0093385Y0182008D01*
X0093528Y0182081D01*
X0093673Y0182150D01*
X0093820Y0182216D01*
X0093968Y0182278D01*
X0094118Y0182336D01*
X0094269Y0182391D01*
X0094422Y0182442D01*
X0094576Y0182489D01*
X0094731Y0182532D01*
X0094887Y0182571D01*
X0095043Y0182607D01*
X0095201Y0182638D01*
X0095359Y0182666D01*
X0095518Y0182690D01*
X0095678Y0182710D01*
X0095838Y0182726D01*
X0095998Y0182738D01*
X0096159Y0182746D01*
X0096320Y0182750D01*
X0096480Y0182750D01*
X0096641Y0182746D01*
X0096802Y0182738D01*
X0096962Y0182726D01*
X0097122Y0182710D01*
X0097282Y0182690D01*
X0097441Y0182666D01*
X0097599Y0182638D01*
X0097757Y0182607D01*
X0097913Y0182571D01*
X0098069Y0182532D01*
X0098224Y0182489D01*
X0098378Y0182442D01*
X0098531Y0182391D01*
X0098682Y0182336D01*
X0098832Y0182278D01*
X0098980Y0182216D01*
X0099127Y0182150D01*
X0099272Y0182081D01*
X0099415Y0182008D01*
X0099557Y0181932D01*
X0099696Y0181852D01*
X0099834Y0181769D01*
X0099969Y0181682D01*
X0100103Y0181592D01*
X0100234Y0181499D01*
X0100362Y0181403D01*
X0100488Y0181303D01*
X0100612Y0181200D01*
X0100733Y0181095D01*
X0100852Y0180986D01*
X0100968Y0180875D01*
X0101081Y0180760D01*
X0101191Y0180643D01*
X0101298Y0180523D01*
X0101402Y0180401D01*
X0101503Y0180276D01*
X0101601Y0180148D01*
X0101696Y0180018D01*
X0101788Y0179886D01*
X0101876Y0179752D01*
X0101961Y0179615D01*
X0102043Y0179477D01*
X0102121Y0179336D01*
X0102195Y0179194D01*
X0102266Y0179050D01*
X0102334Y0178904D01*
X0102397Y0178756D01*
X0102458Y0178607D01*
X0102514Y0178456D01*
X0102567Y0178304D01*
X0102616Y0178151D01*
X0102661Y0177997D01*
X0102702Y0177842D01*
X0102740Y0177685D01*
X0102773Y0177528D01*
X0102803Y0177370D01*
X0102829Y0177211D01*
X0102850Y0177052D01*
X0102868Y0176892D01*
X0102882Y0176732D01*
X0102892Y0176571D01*
X0102898Y0176411D01*
X0102900Y0176250D01*
X0102898Y0176089D01*
X0102892Y0175929D01*
X0102882Y0175768D01*
X0102868Y0175608D01*
X0102850Y0175448D01*
X0102829Y0175289D01*
X0102803Y0175130D01*
X0102773Y0174972D01*
X0102740Y0174815D01*
X0102702Y0174658D01*
X0102661Y0174503D01*
X0102616Y0174349D01*
X0102567Y0174196D01*
X0102514Y0174044D01*
X0102458Y0173893D01*
X0102397Y0173744D01*
X0102334Y0173596D01*
X0102266Y0173450D01*
X0102195Y0173306D01*
X0102121Y0173164D01*
X0102043Y0173023D01*
X0101961Y0172885D01*
X0101876Y0172748D01*
X0101788Y0172614D01*
X0101696Y0172482D01*
X0101601Y0172352D01*
X0101503Y0172224D01*
X0101402Y0172099D01*
X0101298Y0171977D01*
X0101191Y0171857D01*
X0101081Y0171740D01*
X0100968Y0171625D01*
X0100852Y0171514D01*
X0100733Y0171405D01*
X0100612Y0171300D01*
X0100488Y0171197D01*
X0100362Y0171097D01*
X0100234Y0171001D01*
X0100103Y0170908D01*
X0099969Y0170818D01*
X0099834Y0170731D01*
X0099696Y0170648D01*
X0099557Y0170568D01*
X0099415Y0170492D01*
X0099272Y0170419D01*
X0099127Y0170350D01*
X0098980Y0170284D01*
X0098832Y0170222D01*
X0098682Y0170164D01*
X0098531Y0170109D01*
X0098378Y0170058D01*
X0098224Y0170011D01*
X0098069Y0169968D01*
X0097913Y0169929D01*
X0097757Y0169893D01*
X0097599Y0169862D01*
X0097441Y0169834D01*
X0097282Y0169810D01*
X0097122Y0169790D01*
X0096962Y0169774D01*
X0096802Y0169762D01*
X0096641Y0169754D01*
X0096480Y0169750D01*
X0096320Y0169750D01*
X0096159Y0169754D01*
X0095998Y0169762D01*
X0095838Y0169774D01*
X0095678Y0169790D01*
X0095518Y0169810D01*
X0095359Y0169834D01*
X0095201Y0169862D01*
X0095043Y0169893D01*
X0094887Y0169929D01*
X0094731Y0169968D01*
X0094576Y0170011D01*
X0094422Y0170058D01*
X0094269Y0170109D01*
X0094118Y0170164D01*
X0093968Y0170222D01*
X0093820Y0170284D01*
X0093673Y0170350D01*
X0093528Y0170419D01*
X0093385Y0170492D01*
X0093243Y0170568D01*
X0093104Y0170648D01*
X0092966Y0170731D01*
X0092831Y0170818D01*
X0092697Y0170908D01*
X0092566Y0171001D01*
X0092438Y0171097D01*
X0092312Y0171197D01*
X0092188Y0171300D01*
X0092067Y0171405D01*
X0091948Y0171514D01*
X0091832Y0171625D01*
X0091719Y0171740D01*
X0091609Y0171857D01*
X0091502Y0171977D01*
X0091398Y0172099D01*
X0091297Y0172224D01*
X0091199Y0172352D01*
X0091104Y0172482D01*
X0091012Y0172614D01*
X0090924Y0172748D01*
X0090839Y0172885D01*
X0090757Y0173023D01*
X0090679Y0173164D01*
X0090605Y0173306D01*
X0090534Y0173450D01*
X0090466Y0173596D01*
X0090403Y0173744D01*
X0090342Y0173893D01*
X0090286Y0174044D01*
X0090233Y0174196D01*
X0090184Y0174349D01*
X0090139Y0174503D01*
X0090098Y0174658D01*
X0090060Y0174815D01*
X0090027Y0174972D01*
X0089997Y0175130D01*
X0089971Y0175289D01*
X0089950Y0175448D01*
X0089932Y0175608D01*
X0089918Y0175768D01*
X0089908Y0175929D01*
X0089902Y0176089D01*
X0089900Y0176250D01*
X0089900Y0046250D02*
X0089902Y0046411D01*
X0089908Y0046571D01*
X0089918Y0046732D01*
X0089932Y0046892D01*
X0089950Y0047052D01*
X0089971Y0047211D01*
X0089997Y0047370D01*
X0090027Y0047528D01*
X0090060Y0047685D01*
X0090098Y0047842D01*
X0090139Y0047997D01*
X0090184Y0048151D01*
X0090233Y0048304D01*
X0090286Y0048456D01*
X0090342Y0048607D01*
X0090403Y0048756D01*
X0090466Y0048904D01*
X0090534Y0049050D01*
X0090605Y0049194D01*
X0090679Y0049336D01*
X0090757Y0049477D01*
X0090839Y0049615D01*
X0090924Y0049752D01*
X0091012Y0049886D01*
X0091104Y0050018D01*
X0091199Y0050148D01*
X0091297Y0050276D01*
X0091398Y0050401D01*
X0091502Y0050523D01*
X0091609Y0050643D01*
X0091719Y0050760D01*
X0091832Y0050875D01*
X0091948Y0050986D01*
X0092067Y0051095D01*
X0092188Y0051200D01*
X0092312Y0051303D01*
X0092438Y0051403D01*
X0092566Y0051499D01*
X0092697Y0051592D01*
X0092831Y0051682D01*
X0092966Y0051769D01*
X0093104Y0051852D01*
X0093243Y0051932D01*
X0093385Y0052008D01*
X0093528Y0052081D01*
X0093673Y0052150D01*
X0093820Y0052216D01*
X0093968Y0052278D01*
X0094118Y0052336D01*
X0094269Y0052391D01*
X0094422Y0052442D01*
X0094576Y0052489D01*
X0094731Y0052532D01*
X0094887Y0052571D01*
X0095043Y0052607D01*
X0095201Y0052638D01*
X0095359Y0052666D01*
X0095518Y0052690D01*
X0095678Y0052710D01*
X0095838Y0052726D01*
X0095998Y0052738D01*
X0096159Y0052746D01*
X0096320Y0052750D01*
X0096480Y0052750D01*
X0096641Y0052746D01*
X0096802Y0052738D01*
X0096962Y0052726D01*
X0097122Y0052710D01*
X0097282Y0052690D01*
X0097441Y0052666D01*
X0097599Y0052638D01*
X0097757Y0052607D01*
X0097913Y0052571D01*
X0098069Y0052532D01*
X0098224Y0052489D01*
X0098378Y0052442D01*
X0098531Y0052391D01*
X0098682Y0052336D01*
X0098832Y0052278D01*
X0098980Y0052216D01*
X0099127Y0052150D01*
X0099272Y0052081D01*
X0099415Y0052008D01*
X0099557Y0051932D01*
X0099696Y0051852D01*
X0099834Y0051769D01*
X0099969Y0051682D01*
X0100103Y0051592D01*
X0100234Y0051499D01*
X0100362Y0051403D01*
X0100488Y0051303D01*
X0100612Y0051200D01*
X0100733Y0051095D01*
X0100852Y0050986D01*
X0100968Y0050875D01*
X0101081Y0050760D01*
X0101191Y0050643D01*
X0101298Y0050523D01*
X0101402Y0050401D01*
X0101503Y0050276D01*
X0101601Y0050148D01*
X0101696Y0050018D01*
X0101788Y0049886D01*
X0101876Y0049752D01*
X0101961Y0049615D01*
X0102043Y0049477D01*
X0102121Y0049336D01*
X0102195Y0049194D01*
X0102266Y0049050D01*
X0102334Y0048904D01*
X0102397Y0048756D01*
X0102458Y0048607D01*
X0102514Y0048456D01*
X0102567Y0048304D01*
X0102616Y0048151D01*
X0102661Y0047997D01*
X0102702Y0047842D01*
X0102740Y0047685D01*
X0102773Y0047528D01*
X0102803Y0047370D01*
X0102829Y0047211D01*
X0102850Y0047052D01*
X0102868Y0046892D01*
X0102882Y0046732D01*
X0102892Y0046571D01*
X0102898Y0046411D01*
X0102900Y0046250D01*
X0102898Y0046089D01*
X0102892Y0045929D01*
X0102882Y0045768D01*
X0102868Y0045608D01*
X0102850Y0045448D01*
X0102829Y0045289D01*
X0102803Y0045130D01*
X0102773Y0044972D01*
X0102740Y0044815D01*
X0102702Y0044658D01*
X0102661Y0044503D01*
X0102616Y0044349D01*
X0102567Y0044196D01*
X0102514Y0044044D01*
X0102458Y0043893D01*
X0102397Y0043744D01*
X0102334Y0043596D01*
X0102266Y0043450D01*
X0102195Y0043306D01*
X0102121Y0043164D01*
X0102043Y0043023D01*
X0101961Y0042885D01*
X0101876Y0042748D01*
X0101788Y0042614D01*
X0101696Y0042482D01*
X0101601Y0042352D01*
X0101503Y0042224D01*
X0101402Y0042099D01*
X0101298Y0041977D01*
X0101191Y0041857D01*
X0101081Y0041740D01*
X0100968Y0041625D01*
X0100852Y0041514D01*
X0100733Y0041405D01*
X0100612Y0041300D01*
X0100488Y0041197D01*
X0100362Y0041097D01*
X0100234Y0041001D01*
X0100103Y0040908D01*
X0099969Y0040818D01*
X0099834Y0040731D01*
X0099696Y0040648D01*
X0099557Y0040568D01*
X0099415Y0040492D01*
X0099272Y0040419D01*
X0099127Y0040350D01*
X0098980Y0040284D01*
X0098832Y0040222D01*
X0098682Y0040164D01*
X0098531Y0040109D01*
X0098378Y0040058D01*
X0098224Y0040011D01*
X0098069Y0039968D01*
X0097913Y0039929D01*
X0097757Y0039893D01*
X0097599Y0039862D01*
X0097441Y0039834D01*
X0097282Y0039810D01*
X0097122Y0039790D01*
X0096962Y0039774D01*
X0096802Y0039762D01*
X0096641Y0039754D01*
X0096480Y0039750D01*
X0096320Y0039750D01*
X0096159Y0039754D01*
X0095998Y0039762D01*
X0095838Y0039774D01*
X0095678Y0039790D01*
X0095518Y0039810D01*
X0095359Y0039834D01*
X0095201Y0039862D01*
X0095043Y0039893D01*
X0094887Y0039929D01*
X0094731Y0039968D01*
X0094576Y0040011D01*
X0094422Y0040058D01*
X0094269Y0040109D01*
X0094118Y0040164D01*
X0093968Y0040222D01*
X0093820Y0040284D01*
X0093673Y0040350D01*
X0093528Y0040419D01*
X0093385Y0040492D01*
X0093243Y0040568D01*
X0093104Y0040648D01*
X0092966Y0040731D01*
X0092831Y0040818D01*
X0092697Y0040908D01*
X0092566Y0041001D01*
X0092438Y0041097D01*
X0092312Y0041197D01*
X0092188Y0041300D01*
X0092067Y0041405D01*
X0091948Y0041514D01*
X0091832Y0041625D01*
X0091719Y0041740D01*
X0091609Y0041857D01*
X0091502Y0041977D01*
X0091398Y0042099D01*
X0091297Y0042224D01*
X0091199Y0042352D01*
X0091104Y0042482D01*
X0091012Y0042614D01*
X0090924Y0042748D01*
X0090839Y0042885D01*
X0090757Y0043023D01*
X0090679Y0043164D01*
X0090605Y0043306D01*
X0090534Y0043450D01*
X0090466Y0043596D01*
X0090403Y0043744D01*
X0090342Y0043893D01*
X0090286Y0044044D01*
X0090233Y0044196D01*
X0090184Y0044349D01*
X0090139Y0044503D01*
X0090098Y0044658D01*
X0090060Y0044815D01*
X0090027Y0044972D01*
X0089997Y0045130D01*
X0089971Y0045289D01*
X0089950Y0045448D01*
X0089932Y0045608D01*
X0089918Y0045768D01*
X0089908Y0045929D01*
X0089902Y0046089D01*
X0089900Y0046250D01*
D12*
X0096400Y0046250D03*
X0096400Y0176250D03*
X0016400Y0176250D03*
X0016400Y0046250D03*
D13*
X0011400Y0066250D03*
X0011400Y0076250D03*
X0011400Y0086250D03*
X0011400Y0096250D03*
X0011400Y0106250D03*
X0011400Y0116250D03*
X0011400Y0126250D03*
X0011400Y0136250D03*
X0011400Y0146250D03*
X0011400Y0156250D03*
X0041400Y0148750D03*
X0041400Y0163750D03*
X0041400Y0178750D03*
X0051400Y0178750D03*
X0051400Y0163750D03*
X0051400Y0148750D03*
X0051400Y0133750D03*
X0041400Y0133750D03*
X0041400Y0098750D03*
X0041400Y0083750D03*
X0041400Y0068750D03*
X0041400Y0053750D03*
X0051400Y0053750D03*
X0051400Y0068750D03*
X0051400Y0083750D03*
X0051400Y0098750D03*
X0061400Y0098750D03*
X0061400Y0083750D03*
X0061400Y0068750D03*
X0061400Y0053750D03*
X0071400Y0053750D03*
X0071400Y0068750D03*
X0071400Y0083750D03*
X0071400Y0098750D03*
X0071400Y0133750D03*
X0071400Y0148750D03*
X0071400Y0163750D03*
X0071400Y0178750D03*
X0061400Y0178750D03*
X0061400Y0163750D03*
X0061400Y0148750D03*
X0061400Y0133750D03*
X0101400Y0136250D03*
X0101400Y0126250D03*
X0101400Y0116250D03*
X0101400Y0106250D03*
X0101400Y0096250D03*
X0101400Y0086250D03*
X0101400Y0076250D03*
X0101400Y0066250D03*
X0101400Y0146250D03*
X0101400Y0156250D03*
M02*
